<svg width="149" height="45" viewBox="0 0 149 45" fill="none" xmlns="http://www.w3.org/2000/svg">
<path d="M18.7763 13.5481V21.6432C18.0456 21.587 17.4833 21.5309 16.8087 21.5309C11.974 21.5309 8.76979 24.173 8.76979 29.9633V44.2422H0V13.9979H8.37629V17.9893C10.5126 15.066 14.1103 13.5481 18.7763 13.5481Z" fill="white"/>
<path d="M105.518 2.52954V44.242H97.1422V40.7567C94.9498 43.3988 91.7454 44.6918 87.6977 44.6918C79.1528 44.6918 72.5756 38.6204 72.5756 29.1199C72.5756 19.6194 79.1528 13.548 87.6977 13.548C91.408 13.548 94.5561 14.7284 96.7485 17.202V2.52954H105.518H105.518ZM96.9173 29.1199C96.9173 23.8917 93.5443 20.7436 89.2156 20.7436C84.8307 20.7436 81.4577 23.8917 81.4577 29.1199C81.4577 34.348 84.8307 37.4962 89.2156 37.4962C93.5443 37.4962 96.9173 34.348 96.9173 29.1199Z" fill="white"/>
<path d="M148.692 31.5935H125.812C126.655 35.36 129.86 37.6649 134.469 37.6649C137.674 37.6649 139.979 36.7093 142.059 34.7417L146.725 39.8012C143.914 43.0056 139.698 44.6919 134.245 44.6919C123.788 44.6919 116.986 38.1147 116.986 29.12C116.986 20.0693 123.901 13.5481 133.12 13.5481C142.002 13.5481 148.861 19.507 148.861 29.2324C148.861 29.907 148.748 30.8626 148.692 31.5935ZM125.7 26.4779H140.597C139.979 22.6551 137.112 20.1816 133.177 20.1816C129.185 20.1816 126.318 22.5989 125.7 26.4779Z" fill="white"/>
<path d="M28.5583 4.89074C28.5583 2.1361 30.7507 0 34.0114 0C37.272 0 39.4644 2.02374 39.4644 4.72213C39.4644 7.64539 37.272 9.78166 34.0114 9.78166C30.7507 9.78166 28.5583 7.64539 28.5583 4.89092V4.89074ZM29.6265 13.9978H38.3963V44.2421H29.6265V13.9978Z" fill="#22B573"/>
<path d="M51.1012 4.89074C51.1012 2.1361 53.2936 0 56.5542 0C59.8149 0 62.0073 2.02374 62.0073 4.72213C62.0073 7.64539 59.8149 9.78166 56.5542 9.78166C53.2936 9.78166 51.1012 7.64539 51.1012 4.89092V4.89074ZM52.1693 13.9978H60.9391V44.2421H52.1693V13.9978Z" fill="#22B573"/>
</svg>
