<svg width="278" height="278" viewBox="0 0 278 278" fill="none" xmlns="http://www.w3.org/2000/svg">
<path d="M105.924 231.359C102.348 231.359 98.8533 230.299 95.8804 228.312C92.9074 226.326 90.5903 223.503 89.2221 220.199C87.8538 216.896 87.4958 213.261 88.1933 209.754C88.8909 206.248 90.6126 203.026 93.1409 200.498C95.6691 197.97 98.8903 196.248 102.397 195.55C105.904 194.853 109.539 195.211 112.842 196.579C116.145 197.948 118.969 200.265 120.955 203.238C122.942 206.21 124.002 209.706 124.002 213.281C124.002 218.076 122.097 222.674 118.707 226.064C115.317 229.454 110.719 231.359 105.924 231.359Z" fill="white"/>
<path d="M69.365 193.943C68.3213 193.943 67.3011 193.633 66.4333 193.054C65.5655 192.474 64.8891 191.65 64.4897 190.685C64.0903 189.721 63.9858 188.66 64.1894 187.636C64.393 186.613 64.8956 185.673 65.6336 184.935C66.3716 184.197 67.3119 183.694 68.3355 183.49C69.3592 183.287 70.4202 183.391 71.3844 183.791C72.3487 184.19 73.1728 184.866 73.7527 185.734C74.3325 186.602 74.642 187.622 74.642 188.666C74.6421 189.359 74.5057 190.045 74.2406 190.685C73.9754 191.326 73.5868 191.908 73.0967 192.398C72.6067 192.888 72.0249 193.276 71.3846 193.541C70.7443 193.807 70.058 193.943 69.365 193.943Z" fill="white"/>
<path d="M155.908 220.314C155.213 220.314 154.533 220.108 153.955 219.722C153.377 219.335 152.926 218.786 152.66 218.144C152.394 217.501 152.324 216.794 152.459 216.112C152.595 215.43 152.93 214.804 153.421 214.312C153.913 213.82 154.539 213.485 155.221 213.35C155.903 213.214 156.61 213.283 157.253 213.549C157.895 213.815 158.444 214.266 158.831 214.844C159.217 215.422 159.424 216.102 159.424 216.797C159.424 217.259 159.333 217.716 159.157 218.143C158.98 218.57 158.721 218.957 158.395 219.284C158.068 219.61 157.68 219.869 157.254 220.046C156.827 220.223 156.37 220.314 155.908 220.314Z" fill="white"/>
<path d="M204.568 54.293C203.873 54.293 203.193 54.0868 202.615 53.7004C202.036 53.3141 201.586 52.765 201.32 52.1225C201.054 51.48 200.984 50.7731 201.12 50.0911C201.255 49.409 201.59 48.7825 202.082 48.2908C202.574 47.7991 203.2 47.4642 203.882 47.3285C204.564 47.1929 205.271 47.2625 205.914 47.5286C206.556 47.7947 207.105 48.2454 207.491 48.8236C207.878 49.4018 208.084 50.0816 208.084 50.777C208.084 51.7095 207.714 52.6038 207.054 53.2632C206.395 53.9226 205.501 54.293 204.568 54.293Z" fill="white"/>
<path d="M188.82 86.239H196.693V85.553C196.693 84.4425 196.252 83.3776 195.466 82.5923C194.681 81.807 193.616 81.3655 192.506 81.365H169.908C168.797 81.3653 167.732 81.8066 166.947 82.5919C166.162 83.3773 165.72 84.4423 165.72 85.553V152.353H183.282V91.779C183.282 90.3097 183.866 88.9006 184.905 87.8616C185.944 86.8227 187.353 86.239 188.822 86.239" fill="#E0E8F6"/>
<path d="M141.945 152.35H161.151V94.5608H141.945V152.35Z" fill="#D0DBF0"/>
<path d="M189.643 78.1878H172.772C172.462 78.1878 172.166 78.0649 171.947 77.846C171.728 77.6272 171.605 77.3303 171.605 77.0208V70.1748C171.605 69.8653 171.728 69.5685 171.947 69.3496C172.166 69.1308 172.462 69.0078 172.772 69.0078H189.642C189.951 69.0078 190.248 69.1308 190.467 69.3496C190.686 69.5685 190.809 69.8653 190.809 70.1748V77.0208C190.809 77.3301 190.686 77.6268 190.468 77.8457C190.249 78.0645 189.952 78.1875 189.643 78.1878Z" fill="#E0E8F6"/>
<path d="M137.784 152.35H98.684V53.9648C98.6842 53.4605 98.7993 52.9628 99.0205 52.5095C99.2417 52.0563 99.5633 51.6594 99.9608 51.349C100.358 51.0385 100.821 50.8227 101.315 50.7178C101.808 50.613 102.319 50.6219 102.808 50.7438L135.268 58.8438C135.986 59.0229 136.624 59.437 137.08 60.0203C137.536 60.6036 137.784 61.3225 137.784 62.0628V152.35Z" fill="#D0DBF0"/>
<path d="M81.351 152.35V118.343C81.351 116.879 81.9326 115.474 82.968 114.439C84.0034 113.403 85.4077 112.822 86.872 112.822H93.136V152.35H81.351Z" fill="#E0E8F6"/>
<path d="M179.82 145.878C179.431 145.878 179.058 145.724 178.783 145.449C178.508 145.174 178.354 144.801 178.354 144.412V92.791C178.354 92.402 178.509 92.029 178.784 91.754C179.059 91.479 179.432 91.3245 179.821 91.3245C180.209 91.3245 180.582 91.479 180.857 91.754C181.132 92.029 181.287 92.402 181.287 92.791V144.411C181.287 144.8 181.133 145.173 180.858 145.448C180.583 145.723 180.21 145.877 179.821 145.877" fill="#C0CBE2"/>
<path d="M171.684 145.878C171.295 145.878 170.922 145.724 170.647 145.449C170.372 145.174 170.218 144.801 170.218 144.412V92.791C170.218 92.402 170.373 92.029 170.648 91.754C170.923 91.479 171.296 91.3245 171.685 91.3245C172.073 91.3245 172.446 91.479 172.721 91.754C172.997 92.029 173.151 92.402 173.151 92.791V144.411C173.151 144.8 172.997 145.173 172.722 145.448C172.447 145.723 172.074 145.877 171.685 145.877" fill="#C0CBE2"/>
<path d="M130.369 73.5978H107.221C106.639 73.5593 106.092 73.3008 105.694 72.8747C105.295 72.4485 105.073 71.8866 105.073 71.3028C105.073 70.7191 105.295 70.1571 105.694 69.731C106.092 69.3048 106.639 69.0463 107.221 69.0078H130.369C130.952 69.0463 131.498 69.3048 131.897 69.731C132.296 70.1571 132.517 70.7191 132.517 71.3028C132.517 71.8866 132.296 72.4485 131.897 72.8747C131.498 73.3008 130.952 73.5593 130.369 73.5978Z" fill="#C1CAE7"/>
<path d="M130.369 83.6588H107.221C106.639 83.6204 106.092 83.3619 105.694 82.9357C105.295 82.5095 105.073 81.9476 105.073 81.3638C105.073 80.7801 105.295 80.2182 105.694 79.792C106.092 79.3658 106.639 79.1073 107.221 79.0688H130.369C130.952 79.1073 131.498 79.3658 131.897 79.792C132.296 80.2182 132.517 80.7801 132.517 81.3638C132.517 81.9476 132.296 82.5095 131.897 82.9357C131.498 83.3619 130.952 83.6204 130.369 83.6588Z" fill="#C1CAE7"/>
<path d="M130.369 93.7218H107.221C106.639 93.6834 106.092 93.4248 105.694 92.9987C105.295 92.5725 105.073 92.0106 105.073 91.4268C105.073 90.8431 105.295 90.2812 105.694 89.855C106.092 89.4288 106.639 89.1703 107.221 89.1318H130.369C130.952 89.1703 131.498 89.4288 131.897 89.855C132.296 90.2812 132.517 90.8431 132.517 91.4268C132.517 92.0106 132.296 92.5725 131.897 92.9987C131.498 93.4248 130.952 93.6834 130.369 93.7218Z" fill="#C1CAE7"/>
<path d="M130.369 103.783H107.221C106.639 103.744 106.092 103.486 105.694 103.06C105.295 102.634 105.073 102.072 105.073 101.488C105.073 100.904 105.295 100.342 105.694 99.916C106.092 99.4899 106.639 99.2313 107.221 99.1929H130.369C130.952 99.2313 131.498 99.4899 131.897 99.916C132.296 100.342 132.517 100.904 132.517 101.488C132.517 102.072 132.296 102.634 131.897 103.06C131.498 103.486 130.952 103.744 130.369 103.783Z" fill="#C1CAE7"/>
<path d="M130.369 113.845H107.221C106.639 113.806 106.092 113.548 105.694 113.122C105.295 112.696 105.073 112.134 105.073 111.55C105.073 110.966 105.295 110.404 105.694 109.978C106.092 109.552 106.639 109.293 107.221 109.255H130.369C130.952 109.293 131.498 109.552 131.897 109.978C132.296 110.404 132.517 110.966 132.517 111.55C132.517 112.134 132.296 112.696 131.897 113.122C131.498 113.548 130.952 113.806 130.369 113.845Z" fill="#C1CAE7"/>
<path d="M130.369 123.907H107.221C106.639 123.868 106.092 123.61 105.694 123.184C105.295 122.758 105.073 122.196 105.073 121.612C105.073 121.028 105.295 120.466 105.694 120.04C106.092 119.614 106.639 119.355 107.221 119.317H130.369C130.952 119.355 131.498 119.614 131.897 120.04C132.296 120.466 132.517 121.028 132.517 121.612C132.517 122.196 132.296 122.758 131.897 123.184C131.498 123.61 130.952 123.868 130.369 123.907Z" fill="#C1CAE7"/>
<path d="M130.369 133.969H107.221C106.639 133.93 106.092 133.672 105.694 133.246C105.295 132.82 105.073 132.258 105.073 131.674C105.073 131.09 105.295 130.528 105.694 130.102C106.092 129.676 106.639 129.417 107.221 129.379H130.369C130.952 129.417 131.498 129.676 131.897 130.102C132.296 130.528 132.517 131.09 132.517 131.674C132.517 132.258 132.296 132.82 131.897 133.246C131.498 133.672 130.952 133.93 130.369 133.969Z" fill="#C1CAE7"/>
<path d="M130.369 144.031H107.221C106.639 143.992 106.092 143.734 105.694 143.308C105.295 142.882 105.073 142.32 105.073 141.736C105.073 141.152 105.295 140.59 105.694 140.164C106.092 139.738 106.639 139.479 107.221 139.441H130.369C130.952 139.479 131.498 139.738 131.897 140.164C132.296 140.59 132.517 141.152 132.517 141.736C132.517 142.32 132.296 142.882 131.897 143.308C131.498 143.734 130.952 143.992 130.369 144.031Z" fill="#C1CAE7"/>
<path d="M72.331 152.351H41.356V91.2458C41.356 89.9178 41.8835 88.6443 42.8225 87.7053C43.7615 86.7663 45.035 86.2388 46.363 86.2388H67.325C68.6527 86.239 69.926 86.7667 70.8648 87.7056C71.8036 88.6446 72.331 89.918 72.331 91.2458V152.351Z" fill="#E0E8F6"/>
<path d="M66.469 99.4128H47.221C46.7033 99.4128 46.2068 99.2072 45.8408 98.8411C45.4747 98.475 45.269 97.9785 45.269 97.4608V97.3868C45.269 96.8691 45.4747 96.3726 45.8408 96.0065C46.2068 95.6405 46.7033 95.4348 47.221 95.4348H66.469C66.9864 95.4353 67.4824 95.6412 67.848 96.0072C68.2137 96.3733 68.419 96.8695 68.419 97.3868V97.4608C68.419 97.9782 68.2137 98.4744 67.848 98.8404C67.4824 99.2064 66.9864 99.4123 66.469 99.4128Z" fill="#C1CAE7"/>
<path d="M66.469 108.133H47.221C46.7033 108.133 46.2068 107.927 45.8408 107.561C45.4747 107.195 45.269 106.698 45.269 106.181V106.107C45.269 105.589 45.4747 105.093 45.8408 104.727C46.2068 104.36 46.7033 104.155 47.221 104.155H66.469C66.9864 104.155 67.4824 104.361 67.848 104.727C68.2137 105.093 68.419 105.589 68.419 106.107V106.181C68.419 106.698 68.2137 107.194 67.848 107.56C67.4824 107.926 66.9864 108.132 66.469 108.133Z" fill="#C1CAE7"/>
<path d="M66.469 116.852H47.221C46.7033 116.852 46.2068 116.646 45.8408 116.28C45.4747 115.914 45.269 115.417 45.269 114.9V114.826C45.269 114.308 45.4747 113.812 45.8408 113.446C46.2068 113.079 46.7033 112.874 47.221 112.874H66.469C66.9864 112.874 67.4824 113.08 67.848 113.446C68.2137 113.812 68.419 114.308 68.419 114.826V114.9C68.419 115.417 68.2137 115.913 67.848 116.279C67.4824 116.645 66.9864 116.851 66.469 116.852Z" fill="#C1CAE7"/>
<path d="M66.469 125.571H47.221C46.7033 125.571 46.2068 125.365 45.8408 124.999C45.4747 124.633 45.269 124.136 45.269 123.619V123.545C45.269 123.027 45.4747 122.531 45.8408 122.165C46.2068 121.798 46.7033 121.593 47.221 121.593H66.469C66.9864 121.593 67.4824 121.799 67.848 122.165C68.2137 122.531 68.419 123.027 68.419 123.545V123.619C68.419 124.136 68.2137 124.632 67.848 124.998C67.4824 125.364 66.9864 125.57 66.469 125.571Z" fill="#C1CAE7"/>
<path d="M66.469 134.29H47.221C46.7033 134.29 46.2068 134.084 45.8408 133.718C45.4747 133.352 45.269 132.856 45.269 132.338V132.264C45.269 131.746 45.4747 131.25 45.8408 130.884C46.2068 130.518 46.7033 130.312 47.221 130.312H66.469C66.9864 130.313 67.4824 130.518 67.848 130.884C68.2137 131.25 68.419 131.747 68.419 132.264V132.338C68.419 132.855 68.2137 133.352 67.848 133.718C67.4824 134.084 66.9864 134.289 66.469 134.29Z" fill="#C1CAE7"/>
<path d="M66.469 143.009H47.221C46.7035 143.009 46.2072 142.803 45.8411 142.438C45.4751 142.072 45.2693 141.576 45.269 141.058V140.984C45.269 140.466 45.4747 139.97 45.8408 139.604C46.2068 139.238 46.7033 139.032 47.221 139.032H66.469C66.9864 139.033 67.4824 139.238 67.848 139.604C68.2137 139.97 68.419 140.467 68.419 140.984V141.058C68.4188 141.575 68.2133 142.071 67.8477 142.437C67.4821 142.803 66.9862 143.008 66.469 143.009Z" fill="#C1CAE7"/>
<path d="M223.07 155.124H185.155V94.5519C185.155 93.0829 185.739 91.674 186.777 90.6353C187.816 89.5965 189.225 89.0129 190.694 89.0129H217.53C218.258 89.0128 218.978 89.156 219.65 89.4343C220.322 89.7126 220.933 90.1206 221.447 90.6349C221.962 91.1493 222.37 91.7599 222.648 92.432C222.927 93.1041 223.07 93.8245 223.07 94.5519V155.124Z" fill="#E0E8F6"/>
<path d="M216.292 102.187H191.934C191.407 102.187 190.901 101.977 190.528 101.604C190.155 101.231 189.945 100.725 189.945 100.198C189.945 99.6705 190.155 99.1646 190.528 98.7915C190.901 98.4185 191.407 98.209 191.934 98.209H216.292C216.82 98.209 217.325 98.4185 217.699 98.7915C218.072 99.1646 218.281 99.6705 218.281 100.198C218.281 100.725 218.072 101.231 217.699 101.604C217.325 101.977 216.82 102.187 216.292 102.187Z" fill="#C1CAE7"/>
<path d="M216.292 110.907H191.934C191.407 110.907 190.901 110.697 190.528 110.324C190.155 109.951 189.945 109.445 189.945 108.918C189.945 108.39 190.155 107.885 190.528 107.512C190.901 107.139 191.407 106.929 191.934 106.929H216.292C216.82 106.929 217.325 107.139 217.699 107.512C218.072 107.885 218.281 108.39 218.281 108.918C218.281 109.445 218.072 109.951 217.699 110.324C217.325 110.697 216.82 110.907 216.292 110.907Z" fill="#C1CAE7"/>
<path d="M216.292 119.626H191.934C191.407 119.626 190.901 119.416 190.528 119.043C190.155 118.67 189.945 118.164 189.945 117.637C189.945 117.109 190.155 116.604 190.528 116.231C190.901 115.858 191.407 115.648 191.934 115.648H216.292C216.82 115.648 217.325 115.858 217.699 116.231C218.072 116.604 218.281 117.109 218.281 117.637C218.281 118.164 218.072 118.67 217.699 119.043C217.325 119.416 216.82 119.626 216.292 119.626Z" fill="#C1CAE7"/>
<path d="M90.7721 89.1318C89.3142 89.1318 87.916 88.553 86.8847 87.5226C85.8534 86.4923 85.2734 85.0946 85.2721 83.6368V73.5618H64.9351V82.7518H70.2571C71.7807 82.7518 73.242 83.357 74.3194 84.4344C75.3968 85.5118 76.0021 86.9731 76.0021 88.4968V152.351H79.0351V116.262C79.0351 114.644 79.6777 113.092 80.8217 111.948C81.9657 110.804 83.5172 110.162 85.1351 110.162H93.1351V89.1318H90.7721Z" fill="#D0DBF0"/>
<path d="M186.71 63.057H175.704C175.394 63.057 175.098 62.9341 174.879 62.7152C174.66 62.4963 174.537 62.1995 174.537 61.89V56.469C174.537 56.1595 174.66 55.8627 174.879 55.6438C175.098 55.425 175.394 55.302 175.704 55.302H186.71C187.019 55.302 187.316 55.425 187.535 55.6438C187.754 55.8627 187.877 56.1595 187.877 56.469V61.889C187.877 62.1985 187.754 62.4953 187.535 62.7142C187.316 62.9331 187.019 63.057 186.71 63.057Z" fill="#E0E8F6"/>
<path d="M183.283 53.1169H179.133V42.3359C179.133 42.1237 179.217 41.9202 179.367 41.7702C179.517 41.6202 179.721 41.5359 179.933 41.5359H182.487C182.699 41.5359 182.903 41.6202 183.053 41.7702C183.203 41.9202 183.287 42.1237 183.287 42.3359L183.283 53.1169Z" fill="#E0E8F6"/>
<path d="M193.574 162.52H71.539C70.7211 162.505 69.9416 162.17 69.3683 161.586C68.7951 161.003 68.4739 160.217 68.4739 159.399C68.4739 158.581 68.7951 157.796 69.3683 157.212C69.9416 156.629 70.7211 156.293 71.539 156.279H193.574C193.989 156.271 194.4 156.347 194.785 156.5C195.171 156.654 195.521 156.882 195.817 157.173C196.113 157.463 196.348 157.81 196.508 158.192C196.668 158.574 196.751 158.985 196.751 159.399C196.751 159.814 196.668 160.224 196.508 160.607C196.348 160.989 196.113 161.335 195.817 161.626C195.521 161.916 195.171 162.145 194.785 162.299C194.4 162.452 193.989 162.527 193.574 162.52Z" fill="#7E89A0"/>
<path d="M267.854 168.069C267.854 164.089 266.273 160.272 263.459 157.457C260.644 154.643 256.827 153.061 252.847 153.061H36.859C35.7224 153.061 34.6324 152.609 33.8287 151.806C33.025 151.002 32.5735 149.912 32.5735 148.775C32.5735 147.639 33.025 146.549 33.8287 145.745C34.6324 144.941 35.7224 144.49 36.859 144.49H38.121V138.055H30.012C26.0319 138.055 22.2148 139.636 19.4005 142.45C16.5861 145.265 15.005 149.082 15.005 153.062C15.005 157.042 16.5861 160.859 19.4005 163.673C22.2148 166.488 26.0319 168.069 30.012 168.069H248.561C249.698 168.069 250.788 168.52 251.591 169.324C252.395 170.128 252.847 171.218 252.847 172.354C252.847 173.491 252.395 174.581 251.591 175.385C250.788 176.188 249.698 176.64 248.561 176.64H219.442C218.588 176.64 217.77 176.979 217.166 177.583C216.563 178.186 216.224 179.005 216.224 179.858C216.224 180.712 216.563 181.531 217.166 182.134C217.77 182.738 218.588 183.077 219.442 183.077H253.025V183.068C256.974 183.023 260.745 181.423 263.522 178.615C266.298 175.807 267.855 172.017 267.855 168.068" fill="#919DB6"/>
<path d="M203.8 176.64H183.038C182.184 176.64 181.366 176.979 180.762 177.583C180.159 178.186 179.819 179.005 179.819 179.858C179.819 180.712 180.159 181.531 180.762 182.134C181.366 182.738 182.184 183.077 183.038 183.077H203.8C204.654 183.077 205.472 182.738 206.076 182.134C206.679 181.531 207.018 180.712 207.018 179.858C207.018 179.005 206.679 178.186 206.076 177.583C205.472 176.979 204.654 176.64 203.8 176.64Z" fill="#919DB6"/>
<path d="M106.933 207.959H163.979L174.826 232.059H96.488L106.933 207.959Z" fill="#DCE3ED"/>
<path d="M96.488 235.277H174.826V232.063H96.488V235.277Z" fill="#B3C5D0"/>
<path d="M153.196 223.425H129.092C128.197 223.41 127.343 223.043 126.715 222.404C126.087 221.766 125.735 220.906 125.735 220.01C125.735 219.115 126.087 218.255 126.715 217.616C127.343 216.978 128.197 216.611 129.092 216.596H153.192C154.087 216.611 154.941 216.978 155.569 217.616C156.197 218.255 156.549 219.115 156.549 220.01C156.549 220.906 156.197 221.766 155.569 222.404C154.941 223.043 154.087 223.41 153.192 223.425" fill="#B3C5D0"/>
<path d="M139.151 152.683C115.887 152.683 97.6021 134.764 97.6021 111.966C97.6021 89.1678 115.887 71.2488 139.151 71.2488C162.415 71.2488 180.702 89.1668 180.702 111.966C180.702 134.765 162.415 152.683 139.151 152.683Z" fill="white"/>
<path d="M139.151 222.541C139.113 222.499 135.244 218.289 129.659 211.541C124.459 205.266 116.62 195.393 108.774 183.997C100.797 172.646 93.8098 160.63 87.889 148.083C81.59 134.303 78.396 122.152 78.396 111.966C78.3861 104.012 80.0181 96.1413 83.19 88.847C84.7293 85.3019 86.6108 81.9155 88.808 78.736C91.0002 75.5665 93.4895 72.6132 96.242 69.916C107.703 58.6898 123.108 52.4023 139.151 52.4023C155.194 52.4023 170.599 58.6898 182.06 69.916C184.813 72.6131 187.302 75.5665 189.494 78.736C191.691 81.9155 193.573 85.3019 195.112 88.847C198.284 96.1414 199.916 104.012 199.906 111.966C199.906 122.152 196.712 134.303 190.413 148.082C184.493 160.63 177.506 172.647 169.529 183.999C165.198 190.289 158.06 200.174 148.645 211.543C143.059 218.288 139.191 222.498 139.153 222.543L139.151 222.541ZM139.151 79.706C130.433 79.6271 122.035 82.9889 115.78 89.062C112.755 92.0599 110.354 95.6274 108.715 99.5584C107.077 103.489 106.233 107.706 106.233 111.965C106.233 116.224 107.077 120.441 108.715 124.372C110.354 128.303 112.755 131.87 115.78 134.868C122.079 140.874 130.448 144.224 139.151 144.224C147.853 144.224 156.222 140.874 162.521 134.868C165.546 131.87 167.947 128.303 169.586 124.372C171.225 120.441 172.068 116.224 172.068 111.965C172.068 107.706 171.225 103.489 169.586 99.5584C167.947 95.6274 165.546 92.0599 162.521 89.062C156.266 82.9893 147.869 79.6269 139.151 79.706Z" fill="#F52D56"/>
<mask id="mask0_22_196" style="mask-type:luminance" maskUnits="userSpaceOnUse" x="78" y="52" width="62" height="171">
<path d="M78.395 52.478H139.15V222.594H78.395V52.478Z" fill="white"/>
</mask>
<g mask="url(#mask0_22_196)">
<path d="M139.15 222.594C139.112 222.552 135.25 218.353 129.658 211.594C124.458 205.319 116.619 195.446 108.773 184.05C100.796 172.699 93.8088 160.683 87.8881 148.136C81.5891 134.356 78.3951 122.205 78.3951 112.019C78.3851 104.065 80.0172 96.1943 83.1891 88.8999C84.7282 85.3545 86.6098 81.9678 88.8071 78.7879C90.9992 75.6181 93.4884 72.6644 96.2411 69.9669C107.702 58.7405 123.107 52.4529 139.15 52.4529C155.193 52.4529 170.598 58.7405 182.059 69.9669C184.812 72.6643 187.302 75.618 189.495 78.7879C191.692 81.9678 193.574 85.3545 195.113 88.8999C198.285 96.1943 199.917 104.065 199.907 112.019C199.907 122.205 196.713 134.356 190.414 148.135C184.494 160.683 177.507 172.7 169.53 184.052C165.199 190.342 158.061 200.227 148.646 211.596C143.046 218.352 139.192 222.551 139.154 222.596L139.15 222.594ZM139.15 79.7599C130.432 79.6811 122.034 83.0429 115.779 89.1159C112.754 92.1139 110.353 95.6813 108.714 99.6123C107.076 103.543 106.232 107.76 106.232 112.019C106.232 116.278 107.076 120.495 108.714 124.426C110.353 128.357 112.754 131.924 115.779 134.922C122.078 140.927 130.447 144.277 139.15 144.277C147.852 144.277 156.221 140.927 162.52 134.922C165.545 131.924 167.946 128.357 169.585 124.426C171.224 120.495 172.067 116.278 172.067 112.019C172.067 107.76 171.224 103.543 169.585 99.6123C167.946 95.6813 165.545 92.1139 162.52 89.1159C156.265 83.0429 147.868 79.6811 139.15 79.7599Z" fill="#FC4974"/>
</g>
<path d="M141.042 96.9791V99.7111H143.564V98.2401C143.564 97.7386 143.365 97.2576 143.01 96.903C142.655 96.5484 142.175 96.3491 141.673 96.3491C141.506 96.3491 141.345 96.4155 141.227 96.5336C141.109 96.6517 141.042 96.8119 141.042 96.9791Z" fill="#E9E3D5"/>
<path d="M159.565 116.683C159.418 116.533 159.302 116.355 159.224 116.161C159.146 115.966 159.107 115.757 159.11 115.547V111.478C159.11 109.841 158.578 108.249 157.596 106.94L153.065 100.888C152.595 100.261 151.985 99.7528 151.284 99.4027C150.583 99.0526 149.81 98.8706 149.027 98.8711H136.795C135.914 98.8709 135.048 99.1016 134.284 99.5402C133.519 99.9789 132.883 100.61 132.439 101.371L128.014 108.957L122.714 109.593C122.552 109.612 122.392 109.639 122.233 109.673L118.265 114.557V119.043C118.265 119.374 118.33 119.702 118.457 120.008C118.583 120.314 118.769 120.592 119.003 120.826C119.237 121.06 119.515 121.246 119.82 121.373C120.126 121.5 120.454 121.565 120.785 121.565H157.515C158.184 121.565 158.825 121.299 159.298 120.826C159.771 120.353 160.037 119.712 160.037 119.043V117.806C160.037 117.597 159.996 117.391 159.915 117.198C159.835 117.005 159.717 116.831 159.568 116.684" fill="#FFB545"/>
<path d="M159.565 116.684C159.418 116.534 159.301 116.357 159.223 116.161C159.145 115.966 159.106 115.757 159.109 115.547V111.479C159.107 109.843 158.576 108.251 157.595 106.941L153.065 100.888C152.551 100.204 151.871 99.6627 151.09 99.3142C150.742 99.751 150.548 100.291 150.54 100.85C150.531 101.409 150.709 101.954 151.044 102.401L153.975 106.309L151.384 108.957H154.054C154.72 108.955 155.361 109.216 155.836 109.683C156.311 110.15 156.582 110.786 156.591 111.452V115.565C156.593 115.668 156.565 115.77 156.513 115.859C156.46 115.947 156.383 116.019 156.291 116.067C156.2 116.114 156.097 116.135 155.994 116.127C155.891 116.119 155.792 116.083 155.709 116.022C154.854 115.379 153.863 114.943 152.811 114.747C151.76 114.552 150.678 114.602 149.649 114.895C148.621 115.188 147.674 115.714 146.883 116.434C146.092 117.154 145.478 118.047 145.09 119.043H143.565V101.393H141.042V119.043H130.974C130.484 117.919 129.676 116.963 128.651 116.292C127.625 115.62 126.426 115.262 125.2 115.262C123.973 115.262 122.774 115.62 121.748 116.292C120.723 116.963 119.915 117.919 119.425 119.043H118.265C118.265 119.374 118.33 119.702 118.457 120.008C118.583 120.314 118.769 120.592 119.003 120.826C119.237 121.06 119.515 121.246 119.82 121.373C120.126 121.5 120.454 121.565 120.785 121.565H157.515C158.184 121.565 158.825 121.299 159.298 120.827C159.771 120.354 160.037 119.712 160.037 119.043V117.854C160.04 117.638 160.001 117.423 159.92 117.222C159.84 117.022 159.72 116.839 159.569 116.684" fill="#FF7E40"/>
<path d="M135.958 112.109H138.479C138.646 112.109 138.807 112.043 138.925 111.924C139.043 111.806 139.11 111.646 139.11 111.479C139.11 111.311 139.043 111.151 138.925 111.033C138.807 110.915 138.646 110.848 138.479 110.848H135.958C135.791 110.848 135.63 110.915 135.512 111.033C135.394 111.151 135.328 111.311 135.328 111.479C135.328 111.646 135.394 111.806 135.512 111.924C135.63 112.043 135.791 112.109 135.958 112.109Z" fill="#35404A"/>
<path d="M146.043 112.109H148.564C148.731 112.109 148.892 112.043 149.01 111.924C149.128 111.806 149.194 111.646 149.194 111.479C149.194 111.311 149.128 111.151 149.01 111.033C148.892 110.915 148.731 110.848 148.564 110.848H146.043C145.876 110.848 145.715 110.915 145.597 111.033C145.479 111.151 145.412 111.311 145.412 111.479C145.412 111.646 145.479 111.806 145.597 111.924C145.715 112.043 145.876 112.109 146.043 112.109Z" fill="#35404A"/>
<path d="M134.616 102.643L130.933 108.957H141.041V101.392H136.794C136.353 101.393 135.921 101.509 135.539 101.728C135.157 101.948 134.839 102.263 134.616 102.643Z" fill="#87F8F4"/>
<path d="M153.691 105.931L151.043 102.4C150.808 102.087 150.504 101.833 150.154 101.658C149.803 101.483 149.417 101.392 149.026 101.392H143.563V108.957H152.178C152.529 108.957 152.874 108.859 153.172 108.675C153.471 108.49 153.713 108.226 153.87 107.912C154.027 107.598 154.093 107.246 154.062 106.896C154.03 106.546 153.902 106.212 153.691 105.931Z" fill="#87F8F4"/>
<path d="M157.012 111.479C156.684 111.488 156.372 111.625 156.143 111.86C155.915 112.096 155.786 112.411 155.786 112.74C155.786 113.068 155.915 113.383 156.143 113.619C156.372 113.854 156.684 113.991 157.012 114H159.112V111.479H157.012Z" fill="#C5324F"/>
<path d="M118.955 112.011L118.943 112.033C118.899 112.109 118.856 112.186 118.816 112.264C118.454 112.974 118.265 113.759 118.265 114.556H119.714C120.045 114.556 120.373 114.491 120.679 114.365C120.985 114.238 121.263 114.052 121.497 113.818C121.731 113.584 121.917 113.306 122.044 113C122.171 112.694 122.236 112.366 122.236 112.035V109.672C121.558 109.815 120.916 110.097 120.351 110.499C119.787 110.902 119.311 111.416 118.955 112.011Z" fill="#E9E3D5"/>
<path d="M125.199 125.977C124.326 125.977 123.473 125.719 122.747 125.234C122.021 124.749 121.455 124.06 121.121 123.253C120.787 122.447 120.7 121.56 120.87 120.703C121.04 119.847 121.46 119.061 122.078 118.444C122.695 117.826 123.481 117.406 124.337 117.236C125.193 117.066 126.081 117.153 126.887 117.487C127.694 117.821 128.383 118.387 128.868 119.113C129.353 119.839 129.611 120.692 129.611 121.565C129.61 122.735 129.144 123.856 128.317 124.683C127.49 125.511 126.369 125.976 125.199 125.977Z" fill="#596775"/>
<path d="M126.101 117.245C125.843 117.723 125.746 118.271 125.824 118.808C125.903 119.345 126.152 119.843 126.536 120.227L123.861 122.902C123.477 122.518 122.979 122.268 122.442 122.19C121.905 122.112 121.357 122.209 120.879 122.467C121.042 123.246 121.412 123.966 121.95 124.552C122.489 125.137 123.176 125.567 123.938 125.794C124.7 126.021 125.51 126.038 126.281 125.843C127.053 125.648 127.757 125.248 128.319 124.685C128.882 124.123 129.282 123.419 129.477 122.647C129.672 121.876 129.655 121.066 129.428 120.304C129.201 119.542 128.771 118.855 128.186 118.316C127.6 117.778 126.88 117.408 126.101 117.245Z" fill="#35404A"/>
<path d="M127.089 121.564C127.089 121.938 126.978 122.304 126.77 122.615C126.563 122.926 126.267 123.168 125.922 123.311C125.576 123.454 125.196 123.492 124.829 123.419C124.462 123.346 124.125 123.166 123.861 122.901C123.596 122.637 123.416 122.3 123.343 121.933C123.27 121.566 123.308 121.186 123.451 120.84C123.594 120.495 123.836 120.2 124.147 119.992C124.458 119.784 124.824 119.673 125.198 119.673C125.7 119.673 126.181 119.872 126.535 120.227C126.89 120.582 127.089 121.063 127.089 121.564Z" fill="#E9E3D5"/>
<path d="M151.548 125.977C150.675 125.977 149.822 125.719 149.096 125.234C148.37 124.749 147.804 124.06 147.47 123.253C147.136 122.447 147.049 121.56 147.219 120.703C147.389 119.847 147.809 119.061 148.427 118.444C149.044 117.826 149.83 117.406 150.686 117.236C151.542 117.066 152.43 117.153 153.236 117.487C154.043 117.821 154.732 118.387 155.217 119.113C155.702 119.839 155.96 120.692 155.96 121.565C155.959 122.735 155.493 123.856 154.666 124.683C153.839 125.511 152.718 125.976 151.548 125.977Z" fill="#596775"/>
<path d="M152.451 117.245C152.193 117.723 152.096 118.271 152.174 118.808C152.253 119.345 152.502 119.843 152.886 120.227L150.211 122.902C149.827 122.518 149.329 122.268 148.792 122.19C148.255 122.112 147.707 122.209 147.229 122.467C147.392 123.246 147.762 123.966 148.3 124.552C148.839 125.137 149.526 125.567 150.288 125.794C151.05 126.021 151.86 126.038 152.631 125.843C153.403 125.648 154.107 125.248 154.669 124.685C155.232 124.123 155.632 123.419 155.827 122.647C156.022 121.876 156.005 121.066 155.778 120.304C155.551 119.542 155.121 118.855 154.536 118.316C153.95 117.778 153.23 117.408 152.451 117.245Z" fill="#35404A"/>
<path d="M153.439 121.564C153.439 121.938 153.328 122.304 153.12 122.615C152.913 122.926 152.617 123.168 152.272 123.311C151.926 123.454 151.546 123.492 151.179 123.419C150.812 123.346 150.475 123.166 150.211 122.901C149.946 122.637 149.766 122.3 149.693 121.933C149.62 121.566 149.658 121.186 149.801 120.84C149.944 120.495 150.186 120.2 150.497 119.992C150.808 119.784 151.174 119.673 151.548 119.673C152.05 119.673 152.53 119.872 152.885 120.227C153.24 120.582 153.439 121.063 153.439 121.564Z" fill="#E9E3D5"/>
</svg>
