<svg width="278" height="278" viewBox="0 0 278 278" fill="none" xmlns="http://www.w3.org/2000/svg">
<path d="M105.924 231.359C102.349 231.359 98.8533 230.299 95.8804 228.312C92.9075 226.326 90.5904 223.503 89.2221 220.199C87.8538 216.896 87.4958 213.261 88.1934 209.754C88.8909 206.248 90.6127 203.026 93.1409 200.498C95.6692 197.97 98.8904 196.248 102.397 195.55C105.904 194.853 109.539 195.211 112.842 196.579C116.145 197.948 118.969 200.265 120.955 203.238C122.942 206.21 124.002 209.706 124.002 213.281C124.002 218.076 122.097 222.674 118.707 226.064C115.317 229.454 110.719 231.359 105.924 231.359Z" fill="white"/>
<path d="M69.366 193.943C68.3223 193.943 67.302 193.633 66.4342 193.054C65.5664 192.474 64.8901 191.65 64.4907 190.685C64.0913 189.721 63.9868 188.66 64.1904 187.636C64.394 186.613 64.8966 185.673 65.6346 184.935C66.3726 184.197 67.3129 183.694 68.3365 183.49C69.3601 183.287 70.4212 183.391 71.3854 183.791C72.3497 184.19 73.1738 184.866 73.7537 185.734C74.3335 186.602 74.643 187.622 74.643 188.666C74.643 190.065 74.087 191.408 73.0974 192.397C72.1078 193.387 70.7655 193.943 69.366 193.943Z" fill="white"/>
<path d="M155.908 220.314C155.213 220.314 154.533 220.108 153.955 219.722C153.377 219.335 152.926 218.786 152.66 218.144C152.394 217.501 152.324 216.794 152.459 216.112C152.595 215.43 152.93 214.804 153.421 214.312C153.913 213.82 154.539 213.485 155.221 213.35C155.903 213.214 156.61 213.283 157.253 213.549C157.895 213.815 158.444 214.266 158.831 214.844C159.217 215.422 159.424 216.102 159.424 216.797C159.424 217.259 159.333 217.716 159.157 218.143C158.98 218.57 158.721 218.957 158.395 219.284C158.068 219.61 157.68 219.869 157.254 220.046C156.827 220.223 156.37 220.314 155.908 220.314Z" fill="white"/>
<path d="M204.568 54.293C203.873 54.293 203.193 54.0868 202.615 53.7004C202.036 53.3141 201.586 52.765 201.32 52.1225C201.054 51.48 200.984 50.7731 201.12 50.0911C201.255 49.409 201.59 48.7825 202.082 48.2908C202.574 47.7991 203.2 47.4642 203.882 47.3285C204.564 47.1929 205.271 47.2625 205.914 47.5286C206.556 47.7947 207.105 48.2454 207.491 48.8236C207.878 49.4018 208.084 50.0816 208.084 50.777C208.084 51.7095 207.714 52.6038 207.054 53.2632C206.395 53.9226 205.501 54.293 204.568 54.293Z" fill="white"/>
<path d="M188.82 86.239H196.693V85.553C196.693 84.4425 196.252 83.3776 195.466 82.5923C194.681 81.807 193.616 81.3655 192.506 81.365H169.908C168.797 81.3653 167.732 81.8066 166.947 82.5919C166.162 83.3773 165.72 84.4423 165.72 85.553V152.353H183.282V91.779C183.282 90.3097 183.866 88.9006 184.905 87.8616C185.944 86.8227 187.353 86.239 188.822 86.239" fill="#E0E8F6"/>
<path d="M141.945 152.35H161.151V94.5608H141.945V152.35Z" fill="#D0DBF0"/>
<path d="M189.643 78.1878H172.772C172.462 78.1878 172.166 78.0649 171.947 77.846C171.728 77.6272 171.605 77.3303 171.605 77.0208V70.1748C171.605 69.8653 171.728 69.5685 171.947 69.3496C172.166 69.1308 172.462 69.0078 172.772 69.0078H189.642C189.951 69.0078 190.248 69.1308 190.467 69.3496C190.686 69.5685 190.809 69.8653 190.809 70.1748V77.0208C190.809 77.3301 190.686 77.6268 190.468 77.8457C190.249 78.0645 189.952 78.1875 189.643 78.1878Z" fill="#E0E8F6"/>
<path d="M137.784 152.35H98.684V53.9648C98.6841 53.4605 98.799 52.9629 99.0201 52.5096C99.2413 52.0564 99.5627 51.6595 99.9601 51.349C100.358 51.0385 100.82 50.8227 101.314 50.7178C101.807 50.613 102.318 50.6219 102.807 50.7438L135.267 58.8438C135.985 59.0229 136.623 59.437 137.079 60.0202C137.535 60.6035 137.783 61.3225 137.784 62.0628V152.35Z" fill="#D0DBF0"/>
<path d="M81.351 152.35V118.343C81.3513 116.878 81.9332 115.474 82.9687 114.439C84.0043 113.403 85.4087 112.822 86.873 112.822H93.136V152.35H81.351Z" fill="#E0E8F6"/>
<path d="M179.82 145.878C179.431 145.878 179.058 145.724 178.783 145.449C178.508 145.174 178.354 144.801 178.354 144.412V92.791C178.354 92.402 178.509 92.029 178.784 91.754C179.059 91.479 179.432 91.3245 179.821 91.3245C180.209 91.3245 180.582 91.479 180.857 91.754C181.132 92.029 181.287 92.402 181.287 92.791V144.411C181.287 144.8 181.133 145.173 180.858 145.448C180.583 145.723 180.21 145.877 179.821 145.877" fill="#C0CBE2"/>
<path d="M171.684 145.878C171.295 145.878 170.922 145.724 170.647 145.449C170.372 145.174 170.218 144.801 170.218 144.412V92.791C170.218 92.402 170.373 92.029 170.648 91.754C170.923 91.479 171.296 91.3245 171.685 91.3245C172.073 91.3245 172.446 91.479 172.721 91.754C172.997 92.029 173.151 92.402 173.151 92.791V144.411C173.151 144.8 172.997 145.173 172.722 145.448C172.447 145.723 172.074 145.877 171.685 145.877" fill="#C0CBE2"/>
<path d="M130.369 73.5978H107.22C106.638 73.5593 106.091 73.3008 105.693 72.8747C105.294 72.4485 105.072 71.8866 105.072 71.3028C105.072 70.7191 105.294 70.1571 105.693 69.731C106.091 69.3048 106.638 69.0463 107.22 69.0078H130.37C130.953 69.0463 131.499 69.3048 131.898 69.731C132.296 70.1571 132.518 70.7191 132.518 71.3028C132.518 71.8866 132.296 72.4485 131.898 72.8747C131.499 73.3008 130.952 73.5593 130.369 73.5978Z" fill="#C1CAE7"/>
<path d="M130.369 83.6588H107.22C106.638 83.6204 106.091 83.3619 105.693 82.9357C105.294 82.5095 105.072 81.9476 105.072 81.3638C105.072 80.7801 105.294 80.2182 105.693 79.792C106.091 79.3658 106.638 79.1073 107.22 79.0688H130.37C130.953 79.1073 131.499 79.3658 131.898 79.792C132.296 80.2182 132.518 80.7801 132.518 81.3638C132.518 81.9476 132.296 82.5095 131.898 82.9357C131.499 83.3619 130.952 83.6204 130.369 83.6588Z" fill="#C1CAE7"/>
<path d="M130.369 93.7218H107.22C106.638 93.6834 106.091 93.4248 105.693 92.9987C105.294 92.5725 105.072 92.0106 105.072 91.4268C105.072 90.8431 105.294 90.2812 105.693 89.855C106.091 89.4288 106.638 89.1703 107.22 89.1318H130.37C130.953 89.1703 131.499 89.4288 131.898 89.855C132.296 90.2812 132.518 90.8431 132.518 91.4268C132.518 92.0106 132.296 92.5725 131.898 92.9987C131.499 93.4248 130.952 93.6834 130.369 93.7218Z" fill="#C1CAE7"/>
<path d="M130.369 103.783H107.22C106.638 103.744 106.091 103.486 105.693 103.06C105.294 102.634 105.072 102.072 105.072 101.488C105.072 100.904 105.294 100.342 105.693 99.916C106.091 99.4899 106.638 99.2313 107.22 99.1929H130.37C130.953 99.2313 131.499 99.4899 131.898 99.916C132.296 100.342 132.518 100.904 132.518 101.488C132.518 102.072 132.296 102.634 131.898 103.06C131.499 103.486 130.952 103.744 130.369 103.783Z" fill="#C1CAE7"/>
<path d="M130.369 113.845H107.22C106.638 113.806 106.091 113.548 105.693 113.122C105.294 112.696 105.072 112.134 105.072 111.55C105.072 110.966 105.294 110.404 105.693 109.978C106.091 109.552 106.638 109.293 107.22 109.255H130.37C130.953 109.293 131.499 109.552 131.898 109.978C132.296 110.404 132.518 110.966 132.518 111.55C132.518 112.134 132.296 112.696 131.898 113.122C131.499 113.548 130.952 113.806 130.369 113.845Z" fill="#C1CAE7"/>
<path d="M130.369 123.907H107.22C106.638 123.868 106.091 123.61 105.693 123.184C105.294 122.758 105.072 122.196 105.072 121.612C105.072 121.028 105.294 120.466 105.693 120.04C106.091 119.614 106.638 119.355 107.22 119.317H130.37C130.953 119.355 131.499 119.614 131.898 120.04C132.296 120.466 132.518 121.028 132.518 121.612C132.518 122.196 132.296 122.758 131.898 123.184C131.499 123.61 130.952 123.868 130.369 123.907Z" fill="#C1CAE7"/>
<path d="M130.369 133.969H107.22C106.638 133.93 106.091 133.672 105.693 133.246C105.294 132.82 105.072 132.258 105.072 131.674C105.072 131.09 105.294 130.528 105.693 130.102C106.091 129.676 106.638 129.417 107.22 129.379H130.37C130.953 129.417 131.499 129.676 131.898 130.102C132.296 130.528 132.518 131.09 132.518 131.674C132.518 132.258 132.296 132.82 131.898 133.246C131.499 133.672 130.952 133.93 130.369 133.969Z" fill="#C1CAE7"/>
<path d="M130.369 144.031H107.22C106.638 143.992 106.091 143.734 105.693 143.308C105.294 142.882 105.072 142.32 105.072 141.736C105.072 141.152 105.294 140.59 105.693 140.164C106.091 139.738 106.638 139.479 107.22 139.441H130.37C130.953 139.479 131.499 139.738 131.898 140.164C132.296 140.59 132.518 141.152 132.518 141.736C132.518 142.32 132.296 142.882 131.898 143.308C131.499 143.734 130.952 143.992 130.369 144.031Z" fill="#C1CAE7"/>
<path d="M72.332 152.351H41.357V91.2458C41.357 89.9178 41.8845 88.6443 42.8235 87.7053C43.7625 86.7663 45.0361 86.2388 46.364 86.2388H67.325C68.6529 86.2388 69.9265 86.7663 70.8655 87.7053C71.8045 88.6443 72.332 89.9178 72.332 91.2458V152.351Z" fill="#E0E8F6"/>
<path d="M66.47 99.4128H47.222C46.7043 99.4128 46.2078 99.2072 45.8417 98.8411C45.4757 98.475 45.27 97.9785 45.27 97.4608V97.3868C45.27 96.8691 45.4757 96.3726 45.8417 96.0065C46.2078 95.6405 46.7043 95.4348 47.222 95.4348H66.47C66.9877 95.4348 67.4842 95.6405 67.8503 96.0065C68.2164 96.3726 68.422 96.8691 68.422 97.3868V97.4608C68.4222 97.7172 68.3718 97.9711 68.2737 98.208C68.1756 98.4449 68.0319 98.6601 67.8506 98.8414C67.6693 99.0227 67.4541 99.1664 67.2172 99.2645C66.9803 99.3625 66.7264 99.4129 66.47 99.4128Z" fill="#C1CAE7"/>
<path d="M66.47 108.133H47.222C46.7043 108.133 46.2078 107.927 45.8417 107.561C45.4757 107.195 45.27 106.698 45.27 106.181V106.107C45.27 105.589 45.4757 105.093 45.8417 104.727C46.2078 104.36 46.7043 104.155 47.222 104.155H66.47C66.9877 104.155 67.4842 104.36 67.8503 104.727C68.2164 105.093 68.422 105.589 68.422 106.107V106.181C68.4222 106.437 68.3718 106.691 68.2737 106.928C68.1756 107.165 68.0319 107.38 67.8506 107.561C67.6693 107.743 67.4541 107.886 67.2172 107.984C66.9803 108.083 66.7264 108.133 66.47 108.133Z" fill="#C1CAE7"/>
<path d="M66.47 116.852H47.222C46.7043 116.852 46.2078 116.646 45.8417 116.28C45.4757 115.914 45.27 115.417 45.27 114.9V114.826C45.27 114.308 45.4757 113.812 45.8417 113.446C46.2078 113.079 46.7043 112.874 47.222 112.874H66.47C66.9877 112.874 67.4842 113.079 67.8503 113.446C68.2164 113.812 68.422 114.308 68.422 114.826V114.9C68.4222 115.156 68.3718 115.41 68.2737 115.647C68.1756 115.884 68.0319 116.099 67.8506 116.28C67.6693 116.462 67.4541 116.605 67.2172 116.703C66.9803 116.802 66.7264 116.852 66.47 116.852Z" fill="#C1CAE7"/>
<path d="M66.47 125.571H47.222C46.7043 125.571 46.2078 125.365 45.8417 124.999C45.4757 124.633 45.27 124.136 45.27 123.619V123.545C45.27 123.027 45.4757 122.531 45.8417 122.165C46.2078 121.798 46.7043 121.593 47.222 121.593H66.47C66.9877 121.593 67.4842 121.798 67.8503 122.165C68.2164 122.531 68.422 123.027 68.422 123.545V123.619C68.4222 123.875 68.3718 124.129 68.2737 124.366C68.1756 124.603 68.0319 124.818 67.8506 124.999C67.6693 125.181 67.4541 125.324 67.2172 125.422C66.9803 125.521 66.7264 125.571 66.47 125.571Z" fill="#C1CAE7"/>
<path d="M66.47 134.29H47.222C46.7043 134.29 46.2078 134.084 45.8417 133.718C45.4757 133.352 45.27 132.856 45.27 132.338V132.264C45.27 131.746 45.4757 131.25 45.8417 130.884C46.2078 130.518 46.7043 130.312 47.222 130.312H66.47C66.9877 130.312 67.4842 130.518 67.8503 130.884C68.2164 131.25 68.422 131.746 68.422 132.264V132.338C68.422 132.856 68.2164 133.352 67.8503 133.718C67.4842 134.084 66.9877 134.29 66.47 134.29Z" fill="#C1CAE7"/>
<path d="M66.47 143.009H47.222C46.7045 143.009 46.2081 142.803 45.8421 142.438C45.4761 142.072 45.2703 141.576 45.27 141.058V140.984C45.27 140.466 45.4757 139.97 45.8417 139.604C46.2078 139.238 46.7043 139.032 47.222 139.032H66.47C66.9877 139.032 67.4842 139.238 67.8503 139.604C68.2164 139.97 68.422 140.466 68.422 140.984V141.058C68.422 141.314 68.3715 141.568 68.2734 141.805C68.1753 142.042 68.0315 142.257 67.8502 142.438C67.669 142.619 67.4538 142.763 67.2169 142.861C66.9801 142.959 66.7263 143.009 66.47 143.009Z" fill="#C1CAE7"/>
<path d="M223.07 155.124H185.155V94.5519C185.155 93.0829 185.739 91.674 186.777 90.6353C187.816 89.5965 189.225 89.0129 190.694 89.0129H217.53C218.258 89.0128 218.978 89.156 219.65 89.4343C220.322 89.7126 220.933 90.1206 221.447 90.6349C221.962 91.1493 222.37 91.7599 222.648 92.432C222.927 93.1041 223.07 93.8245 223.07 94.5519V155.124Z" fill="#E0E8F6"/>
<path d="M216.292 102.187H191.934C191.406 102.187 190.901 101.977 190.528 101.604C190.155 101.231 189.945 100.725 189.945 100.198C189.945 99.6705 190.155 99.1646 190.528 98.7915C190.901 98.4185 191.406 98.209 191.934 98.209H216.292C216.82 98.209 217.325 98.4185 217.698 98.7915C218.071 99.1646 218.281 99.6705 218.281 100.198C218.281 100.725 218.071 101.231 217.698 101.604C217.325 101.977 216.82 102.187 216.292 102.187Z" fill="#C1CAE7"/>
<path d="M216.292 110.907H191.934C191.406 110.907 190.901 110.697 190.528 110.324C190.155 109.951 189.945 109.445 189.945 108.918C189.945 108.39 190.155 107.885 190.528 107.512C190.901 107.139 191.406 106.929 191.934 106.929H216.292C216.82 106.929 217.325 107.139 217.698 107.512C218.071 107.885 218.281 108.39 218.281 108.918C218.281 109.445 218.071 109.951 217.698 110.324C217.325 110.697 216.82 110.907 216.292 110.907Z" fill="#C1CAE7"/>
<path d="M216.292 119.626H191.934C191.406 119.626 190.901 119.416 190.528 119.043C190.155 118.67 189.945 118.164 189.945 117.637C189.945 117.109 190.155 116.604 190.528 116.231C190.901 115.858 191.406 115.648 191.934 115.648H216.292C216.82 115.648 217.325 115.858 217.698 116.231C218.071 116.604 218.281 117.109 218.281 117.637C218.281 118.164 218.071 118.67 217.698 119.043C217.325 119.416 216.82 119.626 216.292 119.626Z" fill="#C1CAE7"/>
<path d="M90.772 89.1318C89.315 89.1304 87.9181 88.5511 86.8879 87.5209C85.8577 86.4906 85.2783 85.0937 85.277 83.6368V73.5618H64.935V82.7518H70.258C71.7817 82.7518 73.2429 83.357 74.3203 84.4344C75.3977 85.5118 76.003 86.9731 76.003 88.4968V152.351H79.035V116.262C79.035 114.644 79.6777 113.092 80.8216 111.948C81.9656 110.804 83.5172 110.162 85.135 110.162H93.135V89.1318H90.772Z" fill="#D0DBF0"/>
<path d="M186.71 63.057H175.704C175.394 63.057 175.098 62.9341 174.879 62.7152C174.66 62.4963 174.537 62.1995 174.537 61.89V56.469C174.537 56.1595 174.66 55.8627 174.879 55.6438C175.098 55.425 175.394 55.302 175.704 55.302H186.71C187.019 55.302 187.316 55.425 187.535 55.6438C187.754 55.8627 187.877 56.1595 187.877 56.469V61.889C187.877 62.1985 187.754 62.4953 187.535 62.7142C187.316 62.9331 187.019 63.057 186.71 63.057Z" fill="#E0E8F6"/>
<path d="M183.283 53.1169H179.133V42.3359C179.133 42.1237 179.217 41.9202 179.367 41.7702C179.517 41.6202 179.721 41.5359 179.933 41.5359H182.487C182.699 41.5359 182.903 41.6202 183.053 41.7702C183.203 41.9202 183.287 42.1237 183.287 42.3359L183.283 53.1169Z" fill="#E0E8F6"/>
<path d="M193.574 162.52H71.539C70.7211 162.505 69.9416 162.17 69.3683 161.586C68.7951 161.003 68.4739 160.217 68.4739 159.399C68.4739 158.581 68.7951 157.796 69.3683 157.212C69.9416 156.629 70.7211 156.293 71.539 156.279H193.574C193.989 156.271 194.4 156.347 194.785 156.5C195.171 156.654 195.521 156.882 195.817 157.173C196.113 157.463 196.348 157.81 196.508 158.192C196.668 158.574 196.751 158.985 196.751 159.399C196.751 159.814 196.668 160.224 196.508 160.607C196.348 160.989 196.113 161.335 195.817 161.626C195.521 161.916 195.171 162.145 194.785 162.299C194.4 162.452 193.989 162.527 193.574 162.52Z" fill="#7E89A0"/>
<path d="M267.854 168.069C267.854 164.089 266.273 160.272 263.459 157.457C260.644 154.643 256.827 153.061 252.847 153.061H36.859C35.7224 153.061 34.6324 152.609 33.8287 151.806C33.025 151.002 32.5735 149.912 32.5735 148.775C32.5735 147.639 33.025 146.549 33.8287 145.745C34.6324 144.941 35.7224 144.49 36.859 144.49H38.121V138.055H30.012C26.0319 138.055 22.2148 139.636 19.4005 142.45C16.5861 145.265 15.005 149.082 15.005 153.062C15.005 157.042 16.5861 160.859 19.4005 163.673C22.2148 166.488 26.0319 168.069 30.012 168.069H248.561C249.698 168.069 250.788 168.52 251.591 169.324C252.395 170.128 252.847 171.218 252.847 172.354C252.847 173.491 252.395 174.581 251.591 175.385C250.788 176.188 249.698 176.64 248.561 176.64H219.442C218.588 176.64 217.77 176.979 217.166 177.583C216.563 178.186 216.224 179.005 216.224 179.858C216.224 180.712 216.563 181.531 217.166 182.134C217.77 182.738 218.588 183.077 219.442 183.077H253.025V183.068C256.974 183.023 260.745 181.423 263.522 178.615C266.298 175.807 267.855 172.017 267.855 168.068" fill="#919DB6"/>
<path d="M203.8 176.64H183.038C182.184 176.64 181.366 176.979 180.762 177.583C180.159 178.186 179.82 179.005 179.82 179.858C179.82 180.712 180.159 181.531 180.762 182.134C181.366 182.738 182.184 183.077 183.038 183.077H203.8C204.654 183.077 205.472 182.738 206.076 182.134C206.679 181.531 207.019 180.712 207.019 179.858C207.019 179.005 206.679 178.186 206.076 177.583C205.472 176.979 204.654 176.64 203.8 176.64Z" fill="#919DB6"/>
<path d="M189.429 113.753V118.346H193.669V115.873C193.669 115.029 193.334 114.221 192.738 113.624C192.141 113.028 191.332 112.693 190.489 112.693C190.35 112.693 190.212 112.72 190.083 112.773C189.955 112.827 189.838 112.905 189.739 113.003C189.641 113.102 189.563 113.218 189.509 113.347C189.456 113.476 189.429 113.614 189.429 113.753Z" fill="#E9E3D5"/>
<path d="M220.581 146.886C220.334 146.634 220.139 146.336 220.007 146.008C219.876 145.68 219.81 145.33 219.815 144.977V138.134C219.815 135.382 218.923 132.704 217.271 130.503L209.639 120.326C208.849 119.272 207.825 118.418 206.647 117.829C205.469 117.24 204.171 116.934 202.854 116.934H182.286C180.804 116.934 179.348 117.322 178.062 118.06C176.777 118.798 175.708 119.861 174.961 121.141L167.522 133.894L158.614 134.962C158.342 134.994 158.072 135.04 157.806 135.098L151.128 143.312V150.854C151.128 151.411 151.237 151.962 151.45 152.477C151.664 152.991 151.976 153.459 152.37 153.852C152.763 154.246 153.231 154.558 153.745 154.771C154.26 154.984 154.811 155.094 155.368 155.094H217.128C217.685 155.094 218.236 154.984 218.75 154.771C219.265 154.558 219.732 154.246 220.126 153.852C220.519 153.458 220.832 152.991 221.045 152.476C221.258 151.962 221.367 151.411 221.367 150.854V148.774C221.367 148.423 221.298 148.075 221.162 147.751C221.027 147.427 220.829 147.133 220.579 146.886" fill="#FFB545"/>
<path d="M220.583 146.886C220.335 146.634 220.139 146.335 220.007 146.007C219.876 145.679 219.81 145.328 219.815 144.975V138.133C219.812 135.382 218.919 132.705 217.271 130.502L209.639 120.325C208.777 119.177 207.638 118.266 206.328 117.678C205.742 118.412 205.416 119.321 205.402 120.26C205.388 121.199 205.686 122.117 206.249 122.869L211.178 129.441L206.818 133.894H211.308C212.429 133.889 213.506 134.328 214.305 135.113C215.104 135.899 215.56 136.968 215.575 138.089V145.004C215.578 145.178 215.532 145.348 215.443 145.497C215.354 145.647 215.226 145.768 215.072 145.848C214.918 145.928 214.744 145.963 214.571 145.95C214.398 145.937 214.232 145.875 214.092 145.773C212.655 144.692 210.987 143.958 209.219 143.63C207.452 143.301 205.632 143.386 203.902 143.878C202.173 144.37 200.581 145.256 199.25 146.466C197.92 147.676 196.889 149.177 196.236 150.853H193.669V121.178H189.428V150.858H172.499C171.675 148.968 170.318 147.359 168.593 146.229C166.868 145.099 164.851 144.498 162.789 144.498C160.727 144.498 158.71 145.099 156.985 146.229C155.26 147.359 153.903 148.968 153.079 150.858H151.128C151.128 151.415 151.237 151.966 151.45 152.481C151.664 152.995 151.976 153.463 152.37 153.856C152.763 154.25 153.231 154.562 153.745 154.775C154.26 154.989 154.811 155.098 155.368 155.098H217.128C218.253 155.098 219.331 154.651 220.126 153.856C220.921 153.061 221.368 151.982 221.368 150.858V148.858C221.373 148.494 221.306 148.133 221.171 147.796C221.036 147.458 220.835 147.151 220.581 146.891" fill="#FF7E40"/>
<path d="M180.879 139.194H185.119C185.4 139.194 185.67 139.082 185.869 138.884C186.067 138.685 186.179 138.415 186.179 138.134C186.179 137.853 186.067 137.583 185.869 137.384C185.67 137.186 185.4 137.074 185.119 137.074H180.879C180.598 137.074 180.328 137.186 180.129 137.384C179.931 137.583 179.819 137.853 179.819 138.134C179.819 138.415 179.931 138.685 180.129 138.884C180.328 139.082 180.598 139.194 180.879 139.194Z" fill="#35404A"/>
<path d="M197.838 139.194H202.078C202.359 139.194 202.629 139.082 202.828 138.884C203.026 138.685 203.138 138.415 203.138 138.134C203.138 137.853 203.026 137.583 202.828 137.384C202.629 137.186 202.359 137.074 202.078 137.074H197.838C197.557 137.074 197.287 137.186 197.088 137.384C196.89 137.583 196.778 137.853 196.778 138.134C196.778 138.415 196.89 138.685 197.088 138.884C197.287 139.082 197.557 139.194 197.838 139.194Z" fill="#35404A"/>
<path d="M178.623 123.273L172.43 133.894H189.43V121.173H182.286C181.545 121.174 180.818 121.368 180.176 121.736C179.533 122.105 178.998 122.634 178.623 123.273Z" fill="#87F8F4"/>
<path d="M210.698 128.806L206.246 122.874C205.852 122.346 205.34 121.918 204.751 121.623C204.162 121.328 203.513 121.174 202.854 121.174H193.668V133.895H208.154C208.745 133.895 209.323 133.73 209.826 133.419C210.328 133.109 210.734 132.664 210.998 132.136C211.262 131.608 211.374 131.017 211.321 130.428C211.268 129.84 211.052 129.278 210.698 128.806Z" fill="#87F8F4"/>
<path d="M216.281 138.134C215.719 138.134 215.18 138.357 214.782 138.755C214.384 139.152 214.161 139.692 214.161 140.254C214.161 140.816 214.384 141.355 214.782 141.753C215.18 142.15 215.719 142.374 216.281 142.374H219.814V138.134H216.281Z" fill="#C5324F"/>
<path d="M152.289 139.029L152.269 139.065C152.194 139.193 152.123 139.323 152.056 139.455C151.445 140.649 151.127 141.97 151.128 143.311H153.566C154.123 143.311 154.674 143.201 155.189 142.988C155.703 142.775 156.171 142.463 156.564 142.069C156.958 141.675 157.271 141.207 157.484 140.693C157.697 140.178 157.806 139.627 157.806 139.07V135.097C156.665 135.337 155.586 135.81 154.637 136.487C153.688 137.164 152.888 138.029 152.289 139.029Z" fill="#E9E3D5"/>
<path d="M162.787 162.514C161.319 162.514 159.885 162.079 158.665 161.263C157.444 160.448 156.493 159.289 155.932 157.933C155.37 156.578 155.223 155.086 155.51 153.646C155.796 152.207 156.503 150.885 157.54 149.847C158.578 148.809 159.9 148.103 161.339 147.816C162.779 147.53 164.271 147.677 165.627 148.239C166.982 148.8 168.141 149.751 168.957 150.972C169.772 152.192 170.207 153.626 170.207 155.094C170.205 157.061 169.422 158.947 168.031 160.338C166.64 161.729 164.754 162.512 162.787 162.514Z" fill="#596775"/>
<path d="M164.304 147.83C163.87 148.633 163.706 149.555 163.838 150.459C163.97 151.362 164.39 152.199 165.035 152.845L160.535 157.345C159.89 156.699 159.054 156.279 158.151 156.147C157.248 156.014 156.326 156.177 155.523 156.61C155.796 157.919 156.419 159.13 157.324 160.115C158.229 161.1 159.384 161.821 160.666 162.204C161.948 162.586 163.309 162.614 164.606 162.286C165.903 161.958 167.087 161.286 168.033 160.34C168.979 159.394 169.651 158.21 169.979 156.914C170.308 155.617 170.279 154.255 169.897 152.974C169.515 151.692 168.794 150.537 167.809 149.631C166.824 148.726 165.613 148.103 164.304 147.83Z" fill="#35404A"/>
<path d="M165.967 155.093C165.967 155.722 165.781 156.337 165.432 156.86C165.082 157.383 164.586 157.791 164.005 158.031C163.424 158.272 162.784 158.335 162.167 158.213C161.55 158.09 160.984 157.787 160.539 157.343C160.094 156.898 159.791 156.331 159.668 155.715C159.545 155.098 159.608 154.458 159.849 153.877C160.09 153.296 160.497 152.799 161.02 152.45C161.543 152.1 162.158 151.914 162.787 151.914C163.205 151.914 163.618 151.996 164.004 152.156C164.39 152.315 164.74 152.549 165.036 152.845C165.331 153.14 165.565 153.49 165.725 153.876C165.885 154.262 165.967 154.675 165.967 155.093Z" fill="#E9E3D5"/>
<path d="M207.094 162.514C205.626 162.514 204.192 162.079 202.972 161.263C201.751 160.448 200.8 159.289 200.239 157.933C199.677 156.578 199.53 155.086 199.817 153.646C200.103 152.207 200.81 150.885 201.847 149.847C202.885 148.809 204.207 148.103 205.646 147.816C207.086 147.53 208.578 147.677 209.934 148.239C211.289 148.8 212.448 149.751 213.264 150.972C214.079 152.192 214.514 153.626 214.514 155.094C214.512 157.061 213.729 158.947 212.338 160.338C210.947 161.729 209.061 162.512 207.094 162.514Z" fill="#596775"/>
<path d="M208.612 147.83C208.178 148.633 208.014 149.555 208.146 150.459C208.278 151.362 208.698 152.199 209.343 152.845L204.843 157.345C204.198 156.699 203.362 156.279 202.459 156.147C201.556 156.014 200.634 156.177 199.831 156.61C200.104 157.919 200.727 159.13 201.632 160.115C202.537 161.1 203.692 161.821 204.974 162.204C206.256 162.586 207.617 162.614 208.914 162.286C210.211 161.958 211.395 161.286 212.341 160.34C213.287 159.394 213.959 158.21 214.287 156.914C214.616 155.617 214.587 154.255 214.205 152.974C213.823 151.692 213.102 150.537 212.117 149.631C211.132 148.726 209.921 148.103 208.612 147.83Z" fill="#35404A"/>
<path d="M210.275 155.093C210.275 155.722 210.089 156.337 209.74 156.86C209.39 157.383 208.894 157.791 208.313 158.031C207.732 158.272 207.092 158.335 206.475 158.213C205.858 158.09 205.292 157.787 204.847 157.343C204.402 156.898 204.099 156.331 203.976 155.715C203.853 155.098 203.916 154.458 204.157 153.877C204.398 153.296 204.805 152.799 205.328 152.45C205.851 152.1 206.466 151.914 207.095 151.914C207.938 151.914 208.747 152.249 209.343 152.845C209.94 153.441 210.275 154.25 210.275 155.093Z" fill="#E9E3D5"/>
<path d="M142.24 134.875L130.98 144.327C130.525 144.709 129.999 144.997 129.433 145.176C128.866 145.355 128.27 145.42 127.679 145.369C127.087 145.317 126.511 145.149 125.984 144.875C125.457 144.601 124.989 144.225 124.608 143.77C124.226 143.316 123.937 142.79 123.758 142.223C123.58 141.657 123.514 141.061 123.566 140.469C123.618 139.877 123.785 139.301 124.06 138.775C124.334 138.248 124.709 137.78 125.164 137.398L137.517 127.029C138.146 126.502 138.959 126.246 139.777 126.317C140.595 126.389 141.351 126.782 141.88 127.41L142.796 128.504C143.178 128.959 143.467 129.484 143.645 130.051C143.824 130.617 143.89 131.213 143.838 131.805C143.786 132.397 143.619 132.973 143.345 133.5C143.07 134.026 142.695 134.493 142.24 134.875Z" fill="#DBAA79"/>
<path d="M141.843 132.88L129.084 143.589C128.728 143.888 128.316 144.115 127.872 144.255C127.428 144.395 126.961 144.446 126.497 144.406C126.033 144.366 125.582 144.234 125.169 144.019C124.756 143.805 124.389 143.511 124.09 143.154L123.69 142.682C123.086 141.962 122.792 141.031 122.873 140.095C122.955 139.158 123.405 138.293 124.125 137.688L136.889 126.978C137.246 126.679 137.658 126.452 138.101 126.312C138.545 126.172 139.013 126.121 139.476 126.161C139.94 126.202 140.391 126.333 140.804 126.548C141.217 126.763 141.584 127.057 141.883 127.414L142.283 127.886C142.887 128.606 143.181 129.537 143.099 130.473C143.017 131.41 142.567 132.275 141.847 132.88" fill="#EAC897"/>
<path d="M96.6052 179.85C96.4362 180.527 94.5742 214.05 95.0812 214.216C95.5882 214.382 121.494 200.165 121.494 200.165L124.538 182.728L96.6052 179.85Z" fill="#DBAA79"/>
<path d="M131.479 177.479C130.632 179.51 129.394 198.989 120.306 209.644C109.766 222.003 102.699 220.989 101.175 221.326C100.5 222.676 99.292 224.826 98.025 227.019C96.8891 229 95.2954 230.68 93.3771 231.919C91.4589 233.158 89.2718 233.919 86.999 234.139C86.417 234.193 85.783 234.266 85.093 234.361C79.609 235.117 79.167 237.916 75.274 240.117C71.381 242.318 66.974 245.364 60.884 242.317C53.917 238.834 48.356 245.365 48.356 245.365L73.073 202.365C73.073 202.365 72.056 173.754 76.967 165.459C81.878 157.164 97.62 141.589 97.62 141.589C97.62 141.589 108.286 150.562 90.68 164.105C90.68 169.523 90.341 173.586 90.341 173.586C90.341 173.586 103.715 177.479 99.656 206.766C108.456 206.766 115.908 204.735 118.278 196.609C119.391 193.759 120.692 190.987 122.172 188.309C120.141 188.309 123.865 143.109 123.865 143.109L131.479 177.479Z" fill="#EAC897"/>
<path d="M124.974 196.64H94.255C93.1866 196.64 92.1287 196.43 91.1416 196.021C90.1546 195.612 89.2577 195.012 88.5023 194.257C87.7469 193.501 87.1477 192.605 86.7389 191.617C86.3302 190.63 86.1199 189.572 86.12 188.504V112.311C86.1203 110.154 86.9774 108.085 88.503 106.559C90.0285 105.033 92.0975 104.176 94.255 104.176H124.974C127.131 104.176 129.2 105.033 130.726 106.559C132.252 108.085 133.109 110.154 133.109 112.311V188.504C133.109 189.572 132.899 190.63 132.49 191.617C132.081 192.605 131.482 193.501 130.727 194.257C129.971 195.012 129.074 195.612 128.087 196.021C127.1 196.43 126.042 196.64 124.974 196.64Z" fill="#535565"/>
<path d="M123.216 194.259H96.013C95.0265 194.259 94.0496 194.065 93.1382 193.687C92.2268 193.31 91.3987 192.756 90.7012 192.058C90.0037 191.361 89.4505 190.533 89.0732 189.621C88.6958 188.71 88.5018 187.733 88.502 186.746V114.069C88.502 113.083 88.6963 112.106 89.0738 111.195C89.4513 110.284 90.0045 109.456 90.702 108.758C91.3995 108.061 92.2275 107.508 93.1388 107.13C94.05 106.753 95.0267 106.559 96.013 106.559H123.213C124.199 106.559 125.176 106.753 126.087 107.13C126.999 107.508 127.827 108.061 128.524 108.758C129.222 109.456 129.775 110.284 130.152 111.195C130.53 112.106 130.724 113.083 130.724 114.069V186.746C130.725 188.738 129.934 190.648 128.526 192.057C127.118 193.466 125.208 194.258 123.216 194.259Z" fill="#FFE3E0"/>
<path d="M123.216 205.103H96.013C95.0265 205.103 94.0496 204.934 93.1382 204.605C92.2268 204.277 91.3987 203.795 90.7012 203.188C90.0037 202.58 89.4505 201.859 89.0732 201.066C88.6958 200.272 88.5018 199.422 88.502 198.563V135.297C88.502 134.439 88.6963 133.589 89.0738 132.796C89.4513 132.002 90.0045 131.282 90.702 130.674C91.3995 130.067 92.2275 129.586 93.1388 129.257C94.05 128.929 95.0267 128.76 96.013 128.76H123.213C124.199 128.76 125.176 128.929 126.087 129.257C126.999 129.586 127.827 130.067 128.524 130.674C129.222 131.282 129.775 132.002 130.152 132.796C130.53 133.589 130.724 134.439 130.724 135.297V198.563C130.725 200.297 129.934 201.96 128.526 203.187C127.118 204.413 125.208 205.102 123.216 205.103Z" fill="#4CE5B1"/>
<path d="M121.119 133.599C121.119 135.873 120.445 138.096 119.182 139.987C117.918 141.878 116.123 143.352 114.022 144.223C111.921 145.094 109.609 145.322 107.379 144.879C105.148 144.436 103.099 143.341 101.49 141.734C99.8818 140.127 98.7858 138.078 98.3411 135.848C97.8963 133.618 98.1228 131.306 98.9918 129.204C99.8609 127.103 101.333 125.306 103.223 124.042C105.113 122.777 107.336 122.101 109.61 122.099C112.66 122.099 115.585 123.311 117.742 125.467C119.898 127.624 121.11 130.549 121.11 133.599" fill="white"/>
<path d="M105.051 128.955C106.277 127.775 107.913 127.116 109.615 127.116C111.316 127.116 112.952 127.775 114.178 128.955" stroke="#4CE5B1" stroke-width="1.718" stroke-miterlimit="10"/>
<path d="M114.671 137.93C114.053 138.671 113.28 139.267 112.406 139.676C111.533 140.084 110.58 140.296 109.615 140.295C108.65 140.296 107.697 140.084 106.824 139.675C105.95 139.267 105.177 138.671 104.559 137.93" stroke="#4CE5B1" stroke-width="1.718" stroke-miterlimit="10"/>
<path d="M103.166 132.347C102.961 133.322 102.979 134.331 103.22 135.298C103.462 136.265 103.919 137.165 104.558 137.93" stroke="#4CE5B1" stroke-width="1.718" stroke-miterlimit="10"/>
<path d="M114.67 137.93C115.663 136.746 116.206 135.251 116.204 133.706C116.203 133.249 116.156 132.794 116.062 132.347" stroke="#4CE5B1" stroke-width="1.718" stroke-miterlimit="10"/>
<path d="M105.052 128.955C104.097 129.87 103.44 131.052 103.167 132.346" stroke="#4CE5B1" stroke-width="1.718" stroke-miterlimit="10"/>
<path d="M114.178 128.955C115.133 129.87 115.79 131.052 116.063 132.346" stroke="#4CE5B1" stroke-width="1.718" stroke-miterlimit="10"/>
<path d="M109.764 135.244C109.714 135.244 109.664 135.244 109.614 135.244C109.564 135.244 109.515 135.244 109.464 135.244" stroke="#4CE5B1" stroke-width="1.718" stroke-miterlimit="10"/>
<path d="M114.67 137.93C114.14 137.11 113.414 136.435 112.558 135.966C111.701 135.498 110.741 135.251 109.765 135.247" stroke="#4CE5B1" stroke-width="1.718" stroke-miterlimit="10"/>
<path d="M109.464 135.248C108.488 135.251 107.528 135.499 106.671 135.967C105.815 136.436 105.089 137.111 104.559 137.931" stroke="#4CE5B1" stroke-width="1.718" stroke-miterlimit="10"/>
<path d="M109.765 135.247C112.87 135.209 115.446 133.978 116.065 132.347" stroke="#4CE5B1" stroke-width="1.718" stroke-miterlimit="10"/>
<path d="M109.764 135.248H109.615H109.464" stroke="#4CE5B1" stroke-width="1.718" stroke-miterlimit="10"/>
<path d="M109.467 135.247C106.359 135.209 103.784 133.978 103.167 132.347" stroke="#4CE5B1" stroke-width="1.718" stroke-miterlimit="10"/>
<path d="M116.394 109.86H102.836C102.432 109.86 102.033 109.781 101.66 109.626C101.287 109.472 100.948 109.246 100.662 108.96C100.377 108.675 100.151 108.336 99.996 107.963C99.8415 107.59 99.762 107.191 99.762 106.787V105.422H119.467V106.787C119.467 107.602 119.143 108.384 118.567 108.96C117.991 109.536 117.209 109.86 116.394 109.86Z" fill="#535565"/>
<path d="M108.783 184.392C107.237 184.045 105.775 183.398 104.48 182.486C103.185 181.574 102.082 180.416 101.235 179.078C100.387 177.739 99.8116 176.247 99.5409 174.687C99.2702 173.126 99.3097 171.527 99.657 169.982C99.6888 169.845 99.7658 169.723 99.8756 169.635C99.9854 169.548 100.122 169.5 100.262 169.499L103.036 169.482C103.182 169.481 103.324 169.531 103.437 169.624C103.55 169.717 103.626 169.847 103.653 169.991L104.232 173.105C104.257 173.238 104.238 173.375 104.178 173.497C104.118 173.618 104.02 173.716 103.899 173.777L102.08 174.69C102.568 176.872 103.798 178.817 105.562 180.192L107.162 178.937C107.269 178.854 107.399 178.807 107.535 178.805C107.67 178.802 107.802 178.844 107.912 178.923L110.485 180.782C110.604 180.867 110.689 180.992 110.726 181.134C110.762 181.276 110.748 181.426 110.685 181.558L109.485 184.058C109.424 184.185 109.321 184.288 109.194 184.349C109.067 184.41 108.923 184.427 108.785 184.396" fill="white"/>
<path d="M110.855 174.626C110.855 174.858 110.786 175.084 110.657 175.277C110.529 175.47 110.346 175.62 110.131 175.709C109.917 175.798 109.682 175.821 109.454 175.776C109.227 175.73 109.018 175.619 108.854 175.455C108.69 175.291 108.579 175.082 108.534 174.855C108.488 174.627 108.511 174.392 108.6 174.178C108.689 173.963 108.839 173.78 109.032 173.652C109.225 173.523 109.451 173.454 109.683 173.454C109.994 173.454 110.292 173.578 110.512 173.797C110.732 174.017 110.855 174.315 110.855 174.626Z" fill="white"/>
<path d="M114.622 174.626C114.622 174.858 114.553 175.084 114.424 175.277C114.296 175.47 114.113 175.62 113.899 175.709C113.684 175.798 113.449 175.821 113.221 175.776C112.994 175.73 112.785 175.619 112.621 175.455C112.457 175.291 112.346 175.082 112.301 174.855C112.255 174.627 112.279 174.392 112.367 174.178C112.456 173.963 112.606 173.78 112.799 173.652C112.992 173.523 113.218 173.454 113.45 173.454C113.761 173.454 114.059 173.578 114.279 173.797C114.499 174.017 114.622 174.315 114.622 174.626Z" fill="white"/>
<path d="M118.388 174.626C118.388 174.858 118.319 175.084 118.19 175.277C118.062 175.47 117.879 175.62 117.665 175.709C117.45 175.798 117.215 175.821 116.987 175.776C116.76 175.73 116.551 175.619 116.387 175.455C116.223 175.291 116.112 175.082 116.067 174.855C116.021 174.627 116.045 174.392 116.133 174.178C116.222 173.963 116.372 173.78 116.565 173.652C116.758 173.523 116.984 173.454 117.216 173.454C117.527 173.454 117.825 173.578 118.045 173.797C118.265 174.017 118.388 174.315 118.388 174.626Z" fill="white"/>
<path d="M121.912 154.004H98.09C97.8128 154.004 97.547 153.894 97.3511 153.698C97.1551 153.502 97.045 153.236 97.045 152.959C97.045 152.682 97.1551 152.416 97.3511 152.22C97.547 152.024 97.8128 151.914 98.09 151.914H121.912C122.189 151.914 122.455 152.024 122.651 152.22C122.847 152.416 122.957 152.682 122.957 152.959C122.957 153.236 122.847 153.502 122.651 153.698C122.455 153.894 122.189 154.004 121.912 154.004Z" fill="white"/>
<path d="M116.757 158.851H103.246C102.969 158.851 102.703 158.741 102.507 158.545C102.311 158.349 102.201 158.083 102.201 157.806C102.201 157.528 102.311 157.262 102.507 157.066C102.703 156.87 102.969 156.76 103.246 156.76H116.756C117.033 156.76 117.299 156.87 117.495 157.066C117.691 157.262 117.802 157.528 117.802 157.806C117.802 158.083 117.691 158.349 117.495 158.545C117.299 158.741 117.034 158.851 116.757 158.851Z" fill="white"/>
<path d="M84.711 173.222C100.498 176.193 101.291 187.758 100.362 206.865C85.375 204.949 82.511 187.182 82.511 187.182L84.711 173.222Z" fill="#EAC897"/>
<path d="M75.246 169.961C78.829 152.509 92.361 141.287 92.361 141.287C92.361 141.287 103.107 151.587 86.218 166.013C86.218 172.223 86.341 173.872 86.341 173.872" fill="#EAC897"/>
<path d="M134.017 159.948H128.941C127.676 159.948 126.463 159.445 125.568 158.551C124.674 157.656 124.171 156.443 124.171 155.178C124.171 153.913 124.674 152.7 125.568 151.805C126.463 150.911 127.676 150.408 128.941 150.408H134.017C135.282 150.408 136.495 150.911 137.39 151.805C138.284 152.7 138.787 153.913 138.787 155.178C138.787 156.443 138.284 157.656 137.39 158.551C136.495 159.445 135.282 159.948 134.017 159.948Z" fill="#EAC897"/>
<path d="M132.103 170.783H128.548C127.387 170.783 126.274 170.322 125.453 169.501C124.632 168.68 124.17 167.567 124.17 166.406V165.62C124.17 164.459 124.632 163.346 125.453 162.525C126.274 161.704 127.387 161.243 128.548 161.243H132.103C133.264 161.243 134.377 161.704 135.198 162.525C136.019 163.346 136.481 164.459 136.481 165.62V166.406C136.481 167.567 136.019 168.68 135.198 169.501C134.377 170.322 133.264 170.783 132.103 170.783Z" fill="#EAC897"/>
<path d="M133.262 182.295H132.562C131.936 182.295 131.315 182.172 130.737 181.932C130.158 181.693 129.632 181.341 129.189 180.898C128.294 180.004 127.791 178.791 127.791 177.526C127.791 176.261 128.293 175.047 129.187 174.153C130.082 173.258 131.295 172.755 132.56 172.755H133.26C134.525 172.755 135.738 173.257 136.633 174.152C137.527 175.047 138.03 176.26 138.03 177.525C138.03 178.79 137.527 180.003 136.633 180.898C135.738 181.792 134.525 182.295 133.26 182.295" fill="#EAC897"/>
<path d="M130.203 158.719H130.343C130.471 158.714 130.594 158.672 130.698 158.597C130.802 158.523 130.882 158.42 130.928 158.301C130.975 158.181 130.985 158.051 130.958 157.926C130.932 157.801 130.869 157.687 130.778 157.597C130.162 156.942 129.818 156.077 129.818 155.178C129.818 154.279 130.162 153.414 130.778 152.759C130.869 152.67 130.931 152.557 130.958 152.433C130.986 152.309 130.976 152.179 130.932 152.061C130.887 151.942 130.808 151.839 130.706 151.764C130.604 151.689 130.482 151.645 130.355 151.638H130.291C129.825 151.638 129.364 151.73 128.934 151.908C128.504 152.086 128.114 152.347 127.785 152.677C127.456 153.006 127.195 153.397 127.018 153.828C126.84 154.258 126.749 154.719 126.75 155.185C126.764 156.104 127.129 156.983 127.772 157.64C128.414 158.298 129.284 158.684 130.203 158.719Z" fill="#ECDBD0"/>
<path d="M129.784 169.561C129.993 169.568 130.203 169.556 130.41 169.525C130.499 169.514 130.583 169.476 130.651 169.418C130.719 169.359 130.769 169.282 130.794 169.196C130.818 169.11 130.818 169.018 130.791 168.932C130.765 168.847 130.714 168.77 130.645 168.713C130.259 168.379 129.95 167.965 129.739 167.5C129.529 167.035 129.421 166.529 129.425 166.019C129.429 165.508 129.543 165.004 129.76 164.542C129.977 164.08 130.292 163.671 130.683 163.342C130.752 163.286 130.804 163.211 130.832 163.126C130.859 163.042 130.862 162.951 130.839 162.865C130.816 162.778 130.769 162.701 130.703 162.641C130.637 162.581 130.555 162.541 130.467 162.527C130.287 162.497 130.105 162.481 129.922 162.48C129.457 162.477 128.995 162.566 128.564 162.741C128.133 162.917 127.74 163.175 127.409 163.502C127.078 163.829 126.815 164.218 126.634 164.647C126.453 165.076 126.359 165.537 126.356 166.002C126.363 166.921 126.722 167.803 127.36 168.465C127.998 169.128 128.865 169.52 129.784 169.561Z" fill="#ECDBD0"/>
<path d="M131.857 180.333C132.331 180.45 132.828 180.443 133.299 180.313C133.338 180.301 133.372 180.279 133.399 180.248C133.426 180.218 133.443 180.181 133.449 180.141C133.455 180.101 133.45 180.06 133.434 180.023C133.418 179.985 133.391 179.954 133.358 179.931C132.982 179.663 132.677 179.307 132.469 178.893C132.262 178.48 132.158 178.023 132.168 177.561C132.19 176.431 133.811 175.561 133.832 175.028C133.848 174.614 133.045 174.709 132.599 174.72C132.207 174.718 131.82 174.796 131.459 174.949C131.098 175.102 130.773 175.327 130.502 175.609C130.231 175.892 130.021 176.227 129.884 176.594C129.746 176.961 129.685 177.352 129.704 177.743C129.743 178.347 129.973 178.922 130.36 179.388C130.746 179.853 131.271 180.184 131.857 180.333Z" fill="#ECDBD0"/>
<path d="M90.644 240.324L60.765 216.957L65.145 211.357L95.024 234.722L90.644 240.324Z" fill="#ECECEC"/>
<path d="M75.595 266.631L38.862 237.907L57.339 214.279L94.072 243.004L75.595 266.631Z" fill="#535565"/>
<path d="M70.457 224.54L60.104 216.44L64.484 210.84L74.836 218.94L70.457 224.54Z" fill="#CFCFCF"/>
<path d="M50.11 246.904L38.846 238.096L57.323 214.468L68.587 223.276L50.11 246.904Z" fill="#38414A"/>
<path d="M90.514 142.993C91.0798 143.882 91.5174 144.847 91.814 145.858C91.814 146.558 87.172 151.824 85.792 152.289C85.253 152.473 82.532 152.762 82.532 152.762C82.532 152.762 86.6 146.386 90.514 142.993Z" fill="#ECDBD0"/>
</svg>
