<svg width="372" height="189" viewBox="0 0 372 189" fill="none" xmlns="http://www.w3.org/2000/svg">
<path d="M185.662 0V14.844H179.007V72.61H170.265V54.82H165.665V50.52L155.594 54.82H153.127V44.134L141.077 28.645L129.025 44.134V80.475H123.369V87.537H115.023V58.715H108.106L108.394 46.756H100.394V43.33H92.284L91.031 22.618L89.783 43.33H88.223V46.755H86.123L86.894 78.783H85.4V64.653L68.627 54.82V72.61H51.858V58.71H41.506V50.523L23.774 62.955V50.523L0 67.191V189H379V70.287H370.924L371.49 46.755H354.315V12.692H344.115V19.933H333.915V26.562H323.715V60.741H315.875V44.85H313.09V43.1H294.9V44.85H292.108V77.985H286.423V35.4H283.63V33.647H265.441V35.4H262.648V59.922H256.46V44.85H253.668V43.1H235.478V44.85H232.684V50.524L226.847 56.766V67.23H219.041V60.74H215.013V44.85H200.157V35.442L193.823 30.076V14.844H187.167V0H185.662Z" fill="#4CE5B1" fill-opacity="0.2"/>
<path d="M255.039 68V77.5H250.772V114.486H245.172V103.1H242.22V100.346L235.759 103.1H234.177V96.255L226.451 86.339L218.726 96.255V119.521H215.1V124.042H209.748V105.59H205.313L205.498 97.934H200.366V95.741H195.166L194.366 82.481L193.566 95.741H192.566V97.934H191.216L191.71 118.434H190.752V109.392L180 103.1V114.486H169.249V105.586H162.612V100.346L151.243 108.3V100.346L136 111.016V189H379V113H373.822L374.185 97.935H363.173V76.126H356.635V80.762H350.1V85.006H343.562V106.887H338.535V96.713H336.745V95.591H325.079V96.713H323.289V117.927H319.644V90.663H317.853V89.541H306.19V90.663H304.4V106.363H300.432V96.713H298.642V95.591H286.979V96.713H285.188V100.345L281.446 104.345V111.045H276.446V106.887H273.863V96.713H264.338V90.69L260.277 87.255V77.5H256V68H255.039Z" fill="#4CE5B1" fill-opacity="0.3"/>
<path d="M94.373 96V103.226H97.622V131.344H101.889V122.685H104.136V120.593L109.052 122.685H110.252V117.485L116.134 109.945L122.016 117.485V135.175H124.777V138.613H128.851V124.581H132.227L132.086 118.76H136V117.092H139.959L140.568 107.01L141.177 117.092H141.938V118.759H142.965L142.589 134.349H143.318V127.471L151.503 122.685V131.344H159.689V124.581H164.742V120.593L173.397 126.644V120.593L185 128.707V188H0V130.214H3.942L3.666 118.759H12.05V102.178H17.028V105.7H22V108.93H26.978V125.567H30.805V117.832H32.168V116.979H41.047V117.832H42.41V133.961H45.185V113.231H46.548V112.378H55.427V113.231H56.79V125.169H59.811V117.832H61.174V116.979H70.053V117.832H71.417V120.594L74.266 123.632V128.726H78.076V125.567H80.042V117.832H87.3V113.252L90.392 110.64V103.226H93.641V96H94.373Z" fill="#4CE5B1" fill-opacity="0.2"/>
<path d="M143.535 187.397H108.742C106.764 187.392 104.869 186.603 103.471 185.205C102.073 183.807 101.285 181.912 101.279 179.934V96.5441C101.285 94.5664 102.073 92.6714 103.471 91.273C104.869 89.8747 106.764 89.0866 108.742 89.0811H143.535C145.513 89.0869 147.407 89.875 148.806 91.2733C150.204 92.6717 150.992 94.5665 150.998 96.5441V179.934C150.992 181.912 150.204 183.806 148.806 185.205C147.407 186.603 145.513 187.391 143.535 187.397Z" fill="white" stroke="#37334A" stroke-width="2" stroke-miterlimit="10" stroke-linecap="round" stroke-linejoin="round"/>
<path d="M143.535 187.397H108.742C106.764 187.392 104.869 186.603 103.471 185.205C102.073 183.807 101.285 181.912 101.279 179.934V96.5441C101.285 94.5664 102.073 92.6714 103.471 91.273C104.869 89.8747 106.764 89.0866 108.742 89.0811H143.535C145.513 89.0869 147.407 89.875 148.806 91.2733C150.204 92.6717 150.992 94.5665 150.998 96.5441V179.934C150.992 181.912 150.204 183.806 148.806 185.205C147.407 186.603 145.513 187.391 143.535 187.397Z" stroke="#37334A" stroke-width="2" stroke-miterlimit="10" stroke-linecap="round" stroke-linejoin="round"/>
<path d="M129.985 180.244C129.985 181.005 129.759 181.749 129.337 182.381C128.914 183.014 128.313 183.507 127.61 183.798C126.907 184.089 126.134 184.165 125.388 184.017C124.641 183.869 123.956 183.502 123.418 182.964C122.88 182.426 122.513 181.741 122.365 180.994C122.216 180.248 122.293 179.475 122.584 178.772C122.875 178.069 123.368 177.468 124.001 177.045C124.633 176.623 125.377 176.397 126.138 176.397C127.158 176.397 128.137 176.802 128.858 177.524C129.58 178.245 129.985 179.224 129.985 180.244Z" stroke="#37334A" stroke-width="2" stroke-miterlimit="10" stroke-linecap="round" stroke-linejoin="round"/>
<path d="M123.944 93.646H131.522" stroke="#37334A" stroke-width="2" stroke-miterlimit="10" stroke-linecap="round" stroke-linejoin="round"/>
<path d="M120.754 93.646H121.727" stroke="#37334A" stroke-width="2" stroke-miterlimit="10" stroke-linecap="round" stroke-linejoin="round"/>
<path d="M232.728 141.549C232.29 137.206 225.044 138.876 221.202 139.21C210.678 115.987 203.161 117.661 199.987 117.661C196.813 117.661 172.257 117.494 162.235 117.661C152.213 117.828 145.693 135.87 143.193 139.21C143.193 139.21 132.314 136.287 131.834 140.21C131.471 143.885 133.672 144.553 138.516 145.555C131.493 173.957 139.683 175.46 139.683 175.46V184.314C139.683 187.321 143.19 187.397 143.19 187.397H150.707C152.879 187.397 152.879 183.645 152.879 183.645V176.295H211.513V184.314C211.513 188.156 215.355 187.321 215.355 187.321H221.536C224.71 187.321 225.044 183.98 225.044 183.98V175.46C232.394 168.778 227.044 147.73 226.213 145.06C228.385 144.893 232.982 144.067 232.728 141.552" fill="#00BFCC"/>
<path d="M151.224 136.871C151.983 135.506 152.97 133.36 152.97 133.36C154.808 129.515 156.904 124.171 163.084 124.171H199C202.174 124.171 207.018 123.837 211.7 133.693C214.039 138.204 217.046 142.881 210.531 142.881H157.405C154.231 142.881 147.332 143.981 151.225 136.867" fill="#FDFFFE"/>
<path d="M153.084 168.89C149.671 168.68 146.328 167.83 143.229 166.384C140.723 165.048 141.558 160.036 141.809 159.41C142.116 158.897 142.596 158.51 143.162 158.319C143.728 158.128 144.344 158.144 144.899 158.366C147.362 159.296 149.907 159.995 152.499 160.454C156.299 161.277 157.008 163.294 157.426 165.54C157.844 167.786 155.506 168.89 153.083 168.89" fill="#FDFFFE"/>
<path d="M196.469 169.403C190.789 169.903 175.755 169.737 170.744 169.403C165.733 169.069 160.554 169.904 162.225 162.22C170.076 163.055 195.805 162.888 202.149 162.22C203.485 165.727 202.149 168.902 196.469 169.403Z" fill="#FDFFFE"/>
<path d="M222.094 166.384C218.995 167.83 215.651 168.68 212.238 168.89C209.816 168.89 207.477 167.79 207.895 165.54C208.313 163.29 209.02 161.277 212.823 160.456C215.416 159.996 217.96 159.296 220.423 158.366C220.978 158.144 221.594 158.127 222.161 158.319C222.727 158.51 223.207 158.897 223.514 159.41C223.765 160.036 224.6 165.048 222.094 166.385" fill="#FDFFFE"/>
<path d="M90.342 187.397H244.272" stroke="#37334A" stroke-width="2" stroke-miterlimit="10" stroke-linecap="round" stroke-linejoin="round"/>
<path d="M247.58 187.397H249.443" stroke="#37334A" stroke-width="2" stroke-miterlimit="10" stroke-linecap="round" stroke-linejoin="round"/>
<path d="M253.21 187.398H276.248C296.895 187.398 302.102 186.172 302.102 179.808C302.102 173.737 297.04 173.444 275.925 173.444C261.753 173.444 255.1 173.011 255.1 166.792C255.101 159.303 267.726 160.034 279.548 160.245" stroke="#37334A" stroke-width="2" stroke-miterlimit="10" stroke-linecap="round" stroke-linejoin="round" stroke-dasharray="6.06 6.06"/>
<path d="M281.434 160.273C282.061 160.28 282.684 160.283 283.301 160.284" stroke="#37334A" stroke-width="2" stroke-miterlimit="10" stroke-linecap="round" stroke-linejoin="round"/>
<path d="M282.402 158.878C279.236 155.338 276.294 151.605 273.592 147.7C271.279 144.408 269.252 140.923 267.535 137.284C265.894 134.024 264.956 130.455 264.782 126.809C264.78 124.504 265.253 122.223 266.172 120.109C267.065 118.051 268.351 116.186 269.957 114.619C273.281 111.364 277.749 109.541 282.401 109.541C287.054 109.541 291.522 111.364 294.846 114.619C296.452 116.186 297.738 118.051 298.632 120.109C299.551 122.223 300.024 124.504 300.022 126.809C299.848 130.455 298.91 134.023 297.269 137.283C295.552 140.922 293.525 144.408 291.212 147.7C288.51 151.605 285.568 155.338 282.403 158.877L282.402 158.878ZM282.402 120.642C281.581 120.624 280.764 120.77 280 121.072C279.236 121.374 278.539 121.825 277.952 122.4C277.365 122.974 276.898 123.66 276.58 124.417C276.261 125.175 276.097 125.988 276.097 126.81C276.097 127.631 276.261 128.444 276.58 129.202C276.898 129.959 277.365 130.645 277.952 131.22C278.539 131.794 279.236 132.245 280 132.547C280.764 132.849 281.581 132.995 282.402 132.977C283.223 132.995 284.04 132.849 284.804 132.547C285.568 132.245 286.264 131.794 286.852 131.22C287.439 130.645 287.906 129.959 288.224 129.202C288.543 128.444 288.707 127.631 288.707 126.81C288.707 125.988 288.543 125.175 288.224 124.417C287.906 123.66 287.439 122.974 286.852 122.4C286.264 121.825 285.568 121.374 284.804 121.072C284.04 120.77 283.223 120.624 282.402 120.642Z" fill="white" stroke="#37334A" stroke-width="2" stroke-miterlimit="10" stroke-linecap="round" stroke-linejoin="round"/>
<path d="M282.402 158.878C279.236 155.338 276.294 151.605 273.592 147.7C271.279 144.408 269.252 140.923 267.535 137.284C265.894 134.024 264.956 130.455 264.782 126.809C264.78 124.504 265.253 122.223 266.172 120.109C267.065 118.051 268.351 116.186 269.957 114.619C273.281 111.364 277.749 109.541 282.401 109.541C287.054 109.541 291.522 111.364 294.846 114.619C296.452 116.186 297.738 118.051 298.632 120.109C299.551 122.223 300.024 124.504 300.022 126.809C299.848 130.455 298.91 134.023 297.269 137.283C295.552 140.922 293.525 144.408 291.212 147.7C288.51 151.605 285.568 155.338 282.403 158.877L282.402 158.878ZM282.402 120.642C281.581 120.624 280.764 120.77 280 121.072C279.236 121.374 278.539 121.825 277.952 122.4C277.365 122.974 276.898 123.66 276.58 124.417C276.261 125.175 276.097 125.988 276.097 126.81C276.097 127.631 276.261 128.444 276.58 129.202C276.898 129.959 277.365 130.645 277.952 131.22C278.539 131.794 279.236 132.245 280 132.547C280.764 132.849 281.581 132.995 282.402 132.977C283.223 132.995 284.04 132.849 284.804 132.547C285.568 132.245 286.264 131.794 286.852 131.22C287.439 130.645 287.906 129.959 288.224 129.202C288.543 128.444 288.707 127.631 288.707 126.81C288.707 125.988 288.543 125.175 288.224 124.417C287.906 123.66 287.439 122.974 286.852 122.4C286.264 121.825 285.568 121.374 284.804 121.072C284.04 120.77 283.223 120.624 282.402 120.642Z" stroke="#37334A" stroke-width="2" stroke-miterlimit="10" stroke-linecap="round" stroke-linejoin="round"/>
<path d="M135.994 124.922C135.996 126.863 135.424 128.762 134.35 130.379C133.276 131.996 131.748 133.26 129.959 134.012C128.169 134.763 126.197 134.969 124.29 134.604C122.384 134.238 120.628 133.317 119.243 131.957C118.118 130.855 117.273 129.499 116.78 128.003C116.287 126.507 116.159 124.915 116.408 123.359C116.658 121.804 117.276 120.331 118.212 119.064C119.148 117.797 120.374 116.773 121.787 116.077C123.2 115.382 124.76 115.035 126.335 115.067C127.91 115.098 129.454 115.507 130.838 116.259C132.223 117.01 133.407 118.083 134.291 119.386C135.175 120.689 135.734 122.186 135.921 123.75C135.969 124.139 135.993 124.53 135.994 124.922Z" stroke="#37334A" stroke-width="2" stroke-miterlimit="10" stroke-linecap="round" stroke-linejoin="round"/>
<path d="M135.921 123.75C132.886 125.271 129.532 126.045 126.138 126.007C122.743 126.046 119.388 125.27 116.354 123.745C116.642 121.353 117.796 119.148 119.599 117.55C121.402 115.951 123.728 115.068 126.138 115.068C128.547 115.068 130.873 115.951 132.676 117.55C134.479 119.148 135.633 121.353 135.921 123.745V123.75Z" stroke="#37334A" stroke-width="2" stroke-miterlimit="10" stroke-linecap="round" stroke-linejoin="round"/>
<path d="M133.038 131.957C131.199 133.769 128.72 134.783 126.138 134.779C123.558 134.783 121.081 133.769 119.244 131.957C119.489 130.303 120.32 128.791 121.586 127.699C122.852 126.606 124.469 126.005 126.141 126.005C127.814 126.005 129.43 126.606 130.696 127.699C131.962 128.791 132.793 130.303 133.038 131.957Z" stroke="#37334A" stroke-width="2" stroke-miterlimit="10" stroke-linecap="round" stroke-linejoin="round"/>
<path d="M232.99 141.027C232.554 136.668 225.305 138.346 221.46 138.682C219.462 134.065 217.02 129.655 214.167 125.512C207.453 116.127 202.618 117.075 200.235 117.075C197.055 117.075 172.49 116.907 162.458 117.075C152.426 117.243 145.914 135.327 143.406 138.682C143.406 138.682 132.517 135.751 132.038 139.682C131.678 143.367 133.88 144.035 138.727 145.038C131.708 173.523 139.9 175.032 139.9 175.032V183.906C139.9 186.924 143.406 187 143.406 187H150.929C153.1 187 153.1 183.238 153.1 183.238V175.868H211.765V183.906C211.765 187.759 215.61 186.924 215.61 186.924H221.8C224.973 186.924 225.309 183.575 225.309 183.575V175.032C232.664 168.332 227.309 147.225 226.479 144.544C228.651 144.376 233.249 143.544 232.994 141.027" fill="#4CE5B1"/>
<path opacity="0.1" d="M226.482 144.881C227.315 147.541 232.659 168.481 225.313 175.127V183.6C225.313 183.6 224.978 186.922 221.808 186.922H215.63C215.63 186.922 211.788 187.751 211.788 183.928V175.956H164L170.793 169.194L170.893 169.094L177.393 162.623L214.189 126C217.037 130.107 219.477 134.484 221.473 139.066C225.314 138.732 232.556 137.066 232.991 141.392C233.246 143.892 228.653 144.714 226.484 144.881" fill="#242E42"/>
<path d="M210.082 142.938H157.3C154.142 142.938 147.288 144.052 151.157 136.85C151.906 135.471 152.889 133.3 152.889 133.3C154.712 129.409 156.795 124 162.939 124H198.97C201.474 123.793 203.963 124.549 205.929 126.115C207.66 127.506 209.464 129.815 211.245 133.638C213.574 138.202 216.56 142.938 210.082 142.938Z" fill="#FDFFFE"/>
<path d="M196 124L177 143H164L183 124H196Z" fill="#EDEDED"/>
<path d="M207 126.123L190.195 143H181L199.918 124C202.462 123.792 204.99 124.55 207 126.123Z" fill="#EDEDED"/>
<path d="M152.609 169C149.19 168.784 145.845 167.912 142.755 166.432C140.25 165.063 141.085 159.927 141.336 159.285C141.635 158.763 142.112 158.368 142.68 158.171C143.248 157.974 143.868 157.99 144.425 158.215C146.885 159.167 149.43 159.883 152.025 160.355C155.825 161.198 156.533 163.265 156.951 165.567C157.369 167.869 155.031 169 152.609 169Z" fill="#FDFFFE"/>
<path d="M196.8 169.663C191.081 170.198 175.945 170.019 170.9 169.663C165.855 169.307 160.64 170.2 162.322 162C170.227 162.89 196.128 162.713 202.522 162C203.868 165.742 202.522 169.128 196.803 169.663" fill="#FDFFFE"/>
<path d="M222.245 166.432C219.155 167.912 215.809 168.784 212.39 169C209.969 169 207.631 167.869 208.049 165.567C208.467 163.265 209.174 161.2 212.976 160.355C215.571 159.883 218.116 159.167 220.576 158.215C221.133 157.99 221.753 157.974 222.321 158.171C222.889 158.367 223.367 158.763 223.666 159.285C223.917 159.927 224.752 165.063 222.247 166.432" fill="#FDFFFE"/>
</svg>
