<svg width="278" height="278" viewBox="0 0 278 278" fill="none" xmlns="http://www.w3.org/2000/svg">
<path d="M105.924 231.359C102.348 231.359 98.8533 230.299 95.8804 228.312C92.9074 226.326 90.5903 223.503 89.2221 220.199C87.8538 216.896 87.4958 213.261 88.1933 209.754C88.8909 206.248 90.6126 203.026 93.1409 200.498C95.6691 197.97 98.8903 196.248 102.397 195.55C105.904 194.853 109.539 195.211 112.842 196.579C116.145 197.948 118.969 200.265 120.955 203.238C122.942 206.21 124.002 209.706 124.002 213.281C124.002 218.076 122.097 222.674 118.707 226.064C115.317 229.454 110.719 231.359 105.924 231.359Z" fill="white"/>
<path d="M69.365 193.943C68.3213 193.943 67.3011 193.633 66.4333 193.054C65.5655 192.474 64.8891 191.65 64.4897 190.685C64.0903 189.721 63.9858 188.66 64.1894 187.636C64.393 186.613 64.8956 185.673 65.6336 184.935C66.3716 184.197 67.3119 183.694 68.3355 183.49C69.3592 183.287 70.4202 183.391 71.3844 183.791C72.3487 184.19 73.1728 184.866 73.7527 185.734C74.3325 186.602 74.642 187.622 74.642 188.666C74.6421 189.359 74.5057 190.045 74.2406 190.685C73.9754 191.326 73.5868 191.908 73.0967 192.398C72.6067 192.888 72.0249 193.276 71.3846 193.541C70.7443 193.807 70.058 193.943 69.365 193.943Z" fill="white"/>
<path d="M155.908 220.314C155.213 220.314 154.533 220.108 153.955 219.722C153.377 219.335 152.926 218.786 152.66 218.144C152.394 217.501 152.324 216.794 152.459 216.112C152.595 215.43 152.93 214.804 153.421 214.312C153.913 213.82 154.539 213.485 155.221 213.35C155.903 213.214 156.61 213.283 157.253 213.549C157.895 213.815 158.444 214.266 158.831 214.844C159.217 215.422 159.424 216.102 159.424 216.797C159.424 217.259 159.333 217.716 159.157 218.143C158.98 218.57 158.721 218.957 158.395 219.284C158.068 219.61 157.68 219.869 157.254 220.046C156.827 220.223 156.37 220.314 155.908 220.314Z" fill="white"/>
<path d="M204.568 54.293C203.873 54.293 203.193 54.0868 202.615 53.7004C202.036 53.3141 201.586 52.765 201.32 52.1225C201.054 51.48 200.984 50.7731 201.12 50.0911C201.255 49.409 201.59 48.7825 202.082 48.2908C202.574 47.7991 203.2 47.4642 203.882 47.3285C204.564 47.1929 205.271 47.2625 205.914 47.5286C206.556 47.7947 207.105 48.2454 207.491 48.8236C207.878 49.4018 208.084 50.0816 208.084 50.777C208.084 51.7095 207.714 52.6038 207.054 53.2632C206.395 53.9226 205.501 54.293 204.568 54.293Z" fill="white"/>
<path d="M183.566 94.301H191.439V93.615C191.439 92.5045 190.998 91.4396 190.212 90.6543C189.427 89.869 188.363 89.4275 187.252 89.427H164.654C163.543 89.4273 162.478 89.8686 161.693 90.6539C160.908 91.4393 160.466 92.5044 160.466 93.615V160.415H178.028V99.841C178.028 99.1134 178.171 98.393 178.45 97.7208C178.728 97.0486 179.136 96.4378 179.65 95.9233C180.165 95.4089 180.776 95.0008 181.448 94.7224C182.12 94.4441 182.841 94.3009 183.568 94.301" fill="#E0E8F6"/>
<path d="M136.691 160.412H155.897V102.622H136.691V160.412Z" fill="#D0DBF0"/>
<path d="M184.389 86.2498H167.518C167.208 86.2498 166.912 86.1269 166.693 85.908C166.474 85.6892 166.351 85.3923 166.351 85.0828V78.2368C166.351 77.9273 166.474 77.6305 166.693 77.4116C166.912 77.1928 167.208 77.0698 167.518 77.0698H184.388C184.697 77.0698 184.994 77.1928 185.213 77.4116C185.432 77.6305 185.555 77.9273 185.555 78.2368V85.0828C185.555 85.3922 185.432 85.6888 185.213 85.9077C184.995 86.1265 184.698 86.2496 184.389 86.2498Z" fill="#E0E8F6"/>
<path d="M132.53 160.412H93.4299V62.0279C93.4298 61.5234 93.5447 61.0255 93.7658 60.572C93.9869 60.1185 94.3084 59.7214 94.7059 59.4108C95.1035 59.1002 95.5666 58.8843 96.0601 58.7795C96.5536 58.6747 97.0645 58.6837 97.5539 58.8059L130.014 66.9059C130.732 67.085 131.37 67.4991 131.826 68.0823C132.282 68.6656 132.53 69.3846 132.53 70.1249V160.412Z" fill="#D0DBF0"/>
<path d="M76.0969 160.412V126.405C76.0969 124.941 76.6786 123.536 77.714 122.501C78.7494 121.465 80.1537 120.884 81.6179 120.884H87.8819V160.412H76.0969Z" fill="#E0E8F6"/>
<path d="M174.566 153.94C174.177 153.94 173.804 153.786 173.529 153.511C173.254 153.236 173.1 152.863 173.1 152.474V100.852C173.1 100.463 173.254 100.09 173.53 99.815C173.805 99.54 174.178 99.3855 174.566 99.3855C174.955 99.3855 175.328 99.54 175.603 99.815C175.878 100.09 176.033 100.463 176.033 100.852V152.474C176.033 152.863 175.879 153.236 175.604 153.511C175.329 153.786 174.956 153.94 174.567 153.94" fill="#C0CBE2"/>
<path d="M166.43 153.94C166.041 153.94 165.668 153.786 165.393 153.511C165.118 153.236 164.964 152.863 164.964 152.474V100.852C164.964 100.463 165.118 100.09 165.394 99.815C165.669 99.54 166.042 99.3855 166.43 99.3855C166.819 99.3855 167.192 99.54 167.467 99.815C167.742 100.09 167.897 100.463 167.897 100.852V152.474C167.897 152.863 167.743 153.236 167.468 153.511C167.193 153.786 166.82 153.94 166.431 153.94" fill="#C0CBE2"/>
<path d="M125.115 81.6588H101.967C101.385 81.6204 100.838 81.3619 100.44 80.9357C100.041 80.5095 99.8186 79.9476 99.8186 79.3638C99.8186 78.7801 100.041 78.2182 100.44 77.792C100.838 77.3658 101.385 77.1073 101.967 77.0688H125.115C125.698 77.1073 126.244 77.3658 126.643 77.792C127.041 78.2182 127.263 78.7801 127.263 79.3638C127.263 79.9476 127.041 80.5095 126.643 80.9357C126.244 81.3619 125.698 81.6204 125.115 81.6588Z" fill="#C1CAE7"/>
<path d="M125.115 91.7218H101.967C101.385 91.6834 100.838 91.4248 100.44 90.9987C100.041 90.5725 99.8186 90.0106 99.8186 89.4268C99.8186 88.8431 100.041 88.2812 100.44 87.855C100.838 87.4288 101.385 87.1703 101.967 87.1318H125.115C125.698 87.1703 126.244 87.4288 126.643 87.855C127.041 88.2812 127.263 88.8431 127.263 89.4268C127.263 90.0106 127.041 90.5725 126.643 90.9987C126.244 91.4248 125.698 91.6834 125.115 91.7218Z" fill="#C1CAE7"/>
<path d="M125.115 101.783H101.967C101.385 101.744 100.838 101.486 100.44 101.06C100.041 100.634 99.8186 100.072 99.8186 99.4879C99.8186 98.9041 100.041 98.3422 100.44 97.916C100.838 97.4899 101.385 97.2313 101.967 97.1929H125.115C125.698 97.2313 126.244 97.4899 126.643 97.916C127.041 98.3422 127.263 98.9041 127.263 99.4879C127.263 100.072 127.041 100.634 126.643 101.06C126.244 101.486 125.698 101.744 125.115 101.783Z" fill="#C1CAE7"/>
<path d="M125.115 111.846H101.967C101.385 111.807 100.838 111.549 100.44 111.123C100.041 110.697 99.8186 110.135 99.8186 109.551C99.8186 108.967 100.041 108.405 100.44 107.979C100.838 107.553 101.385 107.294 101.967 107.256H125.115C125.698 107.294 126.244 107.553 126.643 107.979C127.041 108.405 127.263 108.967 127.263 109.551C127.263 110.135 127.041 110.697 126.643 111.123C126.244 111.549 125.698 111.807 125.115 111.846Z" fill="#C1CAE7"/>
<path d="M125.115 121.907H101.967C101.385 121.868 100.838 121.61 100.44 121.184C100.041 120.758 99.8186 120.196 99.8186 119.612C99.8186 119.028 100.041 118.466 100.44 118.04C100.838 117.614 101.385 117.355 101.967 117.317H125.115C125.698 117.355 126.244 117.614 126.643 118.04C127.041 118.466 127.263 119.028 127.263 119.612C127.263 120.196 127.041 120.758 126.643 121.184C126.244 121.61 125.698 121.868 125.115 121.907Z" fill="#C1CAE7"/>
<path d="M125.115 131.969H101.967C101.385 131.93 100.838 131.672 100.44 131.246C100.041 130.82 99.8186 130.258 99.8186 129.674C99.8186 129.09 100.041 128.528 100.44 128.102C100.838 127.676 101.385 127.417 101.967 127.379H125.115C125.698 127.417 126.244 127.676 126.643 128.102C127.041 128.528 127.263 129.09 127.263 129.674C127.263 130.258 127.041 130.82 126.643 131.246C126.244 131.672 125.698 131.93 125.115 131.969Z" fill="#C1CAE7"/>
<path d="M125.115 142.031H101.967C101.385 141.992 100.838 141.734 100.44 141.308C100.041 140.882 99.8186 140.32 99.8186 139.736C99.8186 139.152 100.041 138.59 100.44 138.164C100.838 137.738 101.385 137.479 101.967 137.441H125.115C125.698 137.479 126.244 137.738 126.643 138.164C127.041 138.59 127.263 139.152 127.263 139.736C127.263 140.32 127.041 140.882 126.643 141.308C126.244 141.734 125.698 141.992 125.115 142.031Z" fill="#C1CAE7"/>
<path d="M125.115 152.093H101.967C101.385 152.054 100.838 151.796 100.44 151.37C100.041 150.944 99.8186 150.382 99.8186 149.798C99.8186 149.214 100.041 148.652 100.44 148.226C100.838 147.8 101.385 147.541 101.967 147.503H125.115C125.698 147.541 126.244 147.8 126.643 148.226C127.041 148.652 127.263 149.214 127.263 149.798C127.263 150.382 127.041 150.944 126.643 151.37C126.244 151.796 125.698 152.054 125.115 152.093Z" fill="#C1CAE7"/>
<path d="M67.0769 160.413H36.1019V99.3078C36.1019 97.9798 36.6295 96.7063 37.5684 95.7673C38.5074 94.8283 39.781 94.3008 41.1089 94.3008H62.0709C63.3987 94.301 64.672 94.8287 65.6108 95.7677C66.5495 96.7066 67.0769 97.98 67.0769 99.3078V160.413Z" fill="#E0E8F6"/>
<path d="M61.216 107.475H41.968C41.7116 107.475 41.4577 107.425 41.2208 107.327C40.984 107.228 40.7687 107.085 40.5874 106.903C40.4061 106.722 40.2624 106.507 40.1643 106.27C40.0663 106.033 40.0159 105.779 40.016 105.523V105.449C40.016 104.931 40.2216 104.435 40.5877 104.069C40.9538 103.702 41.4503 103.497 41.968 103.497H61.216C61.7337 103.497 62.2302 103.702 62.5963 104.069C62.9623 104.435 63.168 104.931 63.168 105.449V105.523C63.168 106.041 62.9623 106.537 62.5963 106.903C62.2302 107.269 61.7337 107.475 61.216 107.475Z" fill="#C1CAE7"/>
<path d="M61.216 116.195H41.968C41.4503 116.195 40.9538 115.989 40.5877 115.623C40.2216 115.257 40.016 114.76 40.016 114.243V114.169C40.016 113.651 40.2216 113.155 40.5877 112.789C40.9538 112.422 41.4503 112.217 41.968 112.217H61.216C61.7337 112.217 62.2302 112.422 62.5963 112.789C62.9623 113.155 63.168 113.651 63.168 114.169V114.243C63.168 114.76 62.9623 115.257 62.5963 115.623C62.2302 115.989 61.7337 116.195 61.216 116.195Z" fill="#C1CAE7"/>
<path d="M61.216 124.914H41.968C41.4503 124.914 40.9538 124.708 40.5877 124.342C40.2216 123.976 40.016 123.479 40.016 122.962V122.888C40.016 122.37 40.2216 121.874 40.5877 121.508C40.9538 121.141 41.4503 120.936 41.968 120.936H61.216C61.7337 120.936 62.2302 121.141 62.5963 121.508C62.9623 121.874 63.168 122.37 63.168 122.888V122.962C63.168 123.479 62.9623 123.976 62.5963 124.342C62.2302 124.708 61.7337 124.914 61.216 124.914Z" fill="#C1CAE7"/>
<path d="M61.216 133.633H41.968C41.4503 133.633 40.9538 133.427 40.5877 133.061C40.2216 132.695 40.016 132.198 40.016 131.681V131.607C40.016 131.089 40.2216 130.593 40.5877 130.227C40.9538 129.86 41.4503 129.655 41.968 129.655H61.216C61.7337 129.655 62.2302 129.86 62.5963 130.227C62.9623 130.593 63.168 131.089 63.168 131.607V131.682C63.1677 132.199 62.962 132.696 62.5959 133.061C62.2299 133.427 61.7335 133.633 61.216 133.633Z" fill="#C1CAE7"/>
<path d="M61.216 142.352H41.968C41.4503 142.352 40.9538 142.146 40.5877 141.78C40.2216 141.414 40.016 140.917 40.016 140.4V140.326C40.016 139.808 40.2216 139.312 40.5877 138.946C40.9538 138.579 41.4503 138.374 41.968 138.374H61.216C61.7337 138.374 62.2302 138.579 62.5963 138.946C62.9623 139.312 63.168 139.808 63.168 140.326V140.399C63.1681 140.655 63.1177 140.909 63.0197 141.146C62.9217 141.383 62.7779 141.598 62.5966 141.78C62.4153 141.961 62.2001 142.105 61.9632 142.203C61.7263 142.301 61.4724 142.352 61.216 142.352Z" fill="#C1CAE7"/>
<path d="M61.216 151.071H41.968C41.4505 151.071 40.9541 150.865 40.5881 150.5C40.222 150.134 40.0163 149.638 40.016 149.12V149.046C40.0159 148.79 40.0663 148.536 40.1643 148.299C40.2624 148.062 40.4061 147.847 40.5874 147.665C40.7687 147.484 40.984 147.34 41.2208 147.242C41.4577 147.144 41.7116 147.094 41.968 147.094H61.216C61.7337 147.094 62.2302 147.3 62.5963 147.666C62.9623 148.032 63.168 148.528 63.168 149.046V149.12C63.1677 149.638 62.962 150.134 62.5959 150.5C62.2299 150.865 61.7335 151.071 61.216 151.071Z" fill="#C1CAE7"/>
<path d="M217.816 163.186H179.901V102.614C179.901 101.886 180.044 101.166 180.322 100.494C180.601 99.8218 181.009 99.2111 181.523 98.6967C182.037 98.1822 182.648 97.7741 183.32 97.4957C183.992 97.2173 184.713 97.074 185.44 97.074H212.276C213.745 97.074 215.154 97.6577 216.193 98.6966C217.232 99.7356 217.816 101.145 217.816 102.614V163.186Z" fill="#E0E8F6"/>
<path d="M211.038 110.249H186.68C186.415 110.255 186.152 110.208 185.905 110.111C185.659 110.013 185.434 109.868 185.245 109.683C185.055 109.497 184.905 109.276 184.802 109.032C184.699 108.788 184.646 108.525 184.646 108.26C184.646 107.996 184.699 107.733 184.802 107.489C184.905 107.245 185.055 107.024 185.245 106.838C185.434 106.653 185.659 106.508 185.905 106.41C186.152 106.313 186.415 106.266 186.68 106.272H211.038C211.303 106.266 211.566 106.313 211.813 106.41C212.059 106.508 212.284 106.653 212.473 106.838C212.663 107.024 212.813 107.245 212.916 107.489C213.019 107.733 213.072 107.996 213.072 108.26C213.072 108.525 213.019 108.788 212.916 109.032C212.813 109.276 212.663 109.497 212.473 109.683C212.284 109.868 212.059 110.013 211.813 110.111C211.566 110.208 211.303 110.255 211.038 110.249Z" fill="#C1CAE7"/>
<path d="M211.038 118.968H186.68C186.152 118.968 185.646 118.758 185.273 118.385C184.9 118.012 184.691 117.507 184.691 116.979C184.691 116.451 184.9 115.946 185.273 115.573C185.646 115.2 186.152 114.99 186.68 114.99H211.038C211.565 114.99 212.071 115.2 212.444 115.573C212.817 115.946 213.027 116.451 213.027 116.979C213.027 117.507 212.817 118.012 212.444 118.385C212.071 118.758 211.565 118.968 211.038 118.968Z" fill="#C1CAE7"/>
<path d="M211.038 127.688H186.68C186.152 127.688 185.646 127.478 185.273 127.105C184.9 126.732 184.691 126.226 184.691 125.699C184.691 125.171 184.9 124.666 185.273 124.293C185.646 123.92 186.152 123.71 186.68 123.71H211.038C211.565 123.71 212.071 123.92 212.444 124.293C212.817 124.666 213.027 125.171 213.027 125.699C213.027 126.226 212.817 126.732 212.444 127.105C212.071 127.478 211.565 127.688 211.038 127.688Z" fill="#C1CAE7"/>
<path d="M85.518 97.194C84.0602 97.194 82.662 96.6152 81.6307 95.5849C80.5994 94.5545 80.0194 93.1568 80.018 91.699V81.624H59.681V90.814H65.003C66.5267 90.814 67.988 91.4193 69.0654 92.4967C70.1428 93.5741 70.748 95.0354 70.748 96.559V160.412H73.781V124.324C73.781 122.706 74.4237 121.155 75.5677 120.011C76.7117 118.867 78.2632 118.224 79.881 118.224H87.881V97.194H85.518Z" fill="#D0DBF0"/>
<path d="M181.456 71.1188H170.451C170.298 71.1188 170.146 71.0886 170.004 71.0299C169.862 70.9712 169.734 70.8851 169.625 70.7766C169.517 70.6682 169.431 70.5394 169.372 70.3977C169.314 70.256 169.284 70.1041 169.284 69.9508V64.5298C169.284 64.2203 169.407 63.9235 169.626 63.7046C169.845 63.4857 170.141 63.3628 170.451 63.3628H181.456C181.765 63.3628 182.062 63.4857 182.281 63.7046C182.5 63.9235 182.623 64.2203 182.623 64.5298V69.9508C182.623 70.2603 182.5 70.5571 182.281 70.776C182.062 70.9948 181.765 71.1188 181.456 71.1188Z" fill="#E0E8F6"/>
<path d="M178.029 61.1789H173.879V50.3979C173.879 50.1857 173.963 49.9822 174.113 49.8322C174.263 49.6822 174.467 49.5979 174.679 49.5979H177.233C177.445 49.5979 177.649 49.6822 177.799 49.8322C177.949 49.9822 178.033 50.1857 178.033 50.3979L178.029 61.1789Z" fill="#E0E8F6"/>
<path d="M188.32 170.583H66.285C65.4671 170.568 64.6876 170.233 64.1143 169.649C63.541 169.066 63.2198 168.28 63.2198 167.462C63.2198 166.644 63.541 165.859 64.1143 165.275C64.6876 164.692 65.4671 164.356 66.285 164.342H188.32C188.734 164.334 189.146 164.41 189.531 164.563C189.916 164.717 190.267 164.945 190.563 165.236C190.859 165.526 191.094 165.873 191.254 166.255C191.414 166.637 191.497 167.048 191.497 167.462C191.497 167.877 191.414 168.287 191.254 168.67C191.094 169.052 190.859 169.398 190.563 169.689C190.267 169.979 189.916 170.208 189.531 170.362C189.146 170.515 188.734 170.59 188.32 170.583Z" fill="#7E89A0"/>
<path d="M262.6 176.131C262.6 174.16 262.212 172.209 261.458 170.388C260.704 168.567 259.598 166.912 258.205 165.519C256.811 164.125 255.157 163.02 253.336 162.265C251.515 161.511 249.564 161.123 247.593 161.123H31.605C30.4684 161.123 29.3784 160.671 28.5747 159.868C27.771 159.064 27.3195 157.974 27.3195 156.837C27.3195 155.701 27.771 154.611 28.5747 153.807C29.3784 153.003 30.4684 152.552 31.605 152.552H32.867V146.117H24.758C20.7779 146.117 16.9608 147.698 14.1464 150.512C11.3321 153.327 9.75098 157.144 9.75098 161.124C9.75098 165.104 11.3321 168.921 14.1464 171.735C16.9608 174.55 20.7779 176.131 24.758 176.131H243.307C244.444 176.131 245.534 176.582 246.337 177.386C247.141 178.19 247.592 179.28 247.592 180.416C247.592 181.553 247.141 182.643 246.337 183.447C245.534 184.25 244.444 184.702 243.307 184.702H214.188C213.334 184.702 212.516 185.041 211.912 185.645C211.309 186.248 210.969 187.067 210.969 187.92C210.969 188.774 211.309 189.593 211.912 190.196C212.516 190.8 213.334 191.139 214.188 191.139H247.771V191.13C251.72 191.085 255.491 189.485 258.268 186.677C261.044 183.869 262.601 180.079 262.601 176.13" fill="#919DB6"/>
<path d="M198.547 184.702H177.785C176.931 184.702 176.113 185.041 175.509 185.645C174.905 186.248 174.566 187.067 174.566 187.92C174.566 188.774 174.905 189.593 175.509 190.196C176.113 190.8 176.931 191.139 177.785 191.139H198.547C198.97 191.139 199.388 191.056 199.779 190.894C200.169 190.732 200.524 190.495 200.823 190.196C201.122 189.897 201.359 189.543 201.52 189.152C201.682 188.762 201.765 188.343 201.765 187.92C201.765 187.498 201.682 187.079 201.52 186.689C201.359 186.298 201.122 185.943 200.823 185.645C200.524 185.346 200.169 185.109 199.779 184.947C199.388 184.785 198.97 184.702 198.547 184.702Z" fill="#919DB6"/>
<path d="M164.307 231.151H106.922C102.891 231.151 99.0248 229.55 96.1743 226.699C93.3237 223.849 91.7222 219.983 91.7219 215.952V73.617C91.7219 69.5857 93.3233 65.7195 96.1739 62.869C99.0245 60.0184 102.891 58.417 106.922 58.417H164.307C168.338 58.417 172.204 60.0184 175.055 62.869C177.906 65.7195 179.507 69.5857 179.507 73.617V215.952C179.507 219.983 177.906 223.849 175.055 226.7C172.204 229.551 168.338 231.152 164.307 231.152" fill="#535565"/>
<path d="M161.023 226.699H110.204C106.483 226.699 102.914 225.221 100.283 222.589C97.6512 219.958 96.173 216.389 96.173 212.668V76.8989C96.173 73.1777 97.6512 69.6088 100.283 66.9775C102.914 64.3462 106.483 62.8679 110.204 62.8679H161.023C164.744 62.8682 168.313 64.3466 170.944 66.9779C173.575 69.6092 175.053 73.1778 175.053 76.8989V212.668C175.053 216.389 173.575 219.958 170.944 222.589C168.313 225.22 164.744 226.699 161.023 226.699Z" fill="#FFE3E0"/>
<path d="M161.023 226.699H110.204C106.483 226.699 102.914 225.221 100.283 222.589C97.6512 219.958 96.173 216.389 96.173 212.668V76.8989C96.173 73.1777 97.6512 69.6088 100.283 66.9775C102.914 64.3462 106.483 62.8679 110.204 62.8679H161.023C164.744 62.8682 168.313 64.3466 170.944 66.9779C173.575 69.6092 175.053 73.1778 175.053 76.8989V212.668C175.053 216.389 173.575 219.958 170.944 222.589C168.313 225.22 164.744 226.699 161.023 226.699Z" fill="#4CE5B1"/>
<path d="M148.278 69.0359H122.949C121.426 69.0359 119.966 68.4309 118.889 67.3541C117.812 66.2772 117.207 64.8167 117.207 63.2939V60.7449H154.02V63.2939C154.02 64.8167 153.415 66.2772 152.338 67.3541C151.261 68.4309 149.801 69.0359 148.278 69.0359Z" fill="#535565"/>
<path d="M159.117 203.644H112.117C111.647 203.634 111.184 203.531 110.753 203.342C110.323 203.153 109.934 202.88 109.609 202.541C109.284 202.201 109.029 201.801 108.859 201.363C108.689 200.924 108.606 200.457 108.617 199.987V151.658C108.596 150.71 108.952 149.792 109.607 149.106C110.262 148.42 111.163 148.022 112.111 148H159.111C160.059 148.023 160.959 148.42 161.614 149.106C162.269 149.792 162.625 150.71 162.604 151.658V199.988C162.625 200.935 162.27 201.851 161.616 202.537C160.962 203.222 160.064 203.62 159.117 203.644Z" fill="#E5E5E5"/>
<path d="M157.864 99.319H113.362C112.86 99.2963 112.386 99.0809 112.039 98.7177C111.692 98.3545 111.498 97.8714 111.498 97.369C111.498 96.8666 111.692 96.3835 112.039 96.0203C112.386 95.6571 112.86 95.4417 113.362 95.419H157.862C158.125 95.4071 158.389 95.4486 158.636 95.5413C158.883 95.6339 159.108 95.7756 159.299 95.9578C159.49 96.1401 159.641 96.3591 159.745 96.6016C159.849 96.8442 159.902 97.1052 159.902 97.369C159.902 97.6328 159.849 97.8938 159.745 98.1364C159.641 98.3789 159.49 98.5979 159.299 98.7802C159.108 98.9624 158.883 99.1041 158.636 99.1967C158.389 99.2893 158.125 99.3309 157.862 99.319" fill="white"/>
<path d="M148.233 108.373H122.993C122.491 108.35 122.017 108.135 121.67 107.772C121.323 107.408 121.129 106.925 121.129 106.423C121.129 105.921 121.323 105.437 121.67 105.074C122.017 104.711 122.491 104.496 122.993 104.473H148.233C148.496 104.461 148.76 104.503 149.007 104.595C149.254 104.688 149.479 104.83 149.67 105.012C149.861 105.194 150.012 105.413 150.116 105.656C150.22 105.898 150.273 106.159 150.273 106.423C150.273 106.687 150.22 106.948 150.116 107.19C150.012 107.433 149.861 107.652 149.67 107.834C149.479 108.016 149.254 108.158 149.007 108.251C148.76 108.343 148.496 108.385 148.233 108.373Z" fill="white"/>
<path d="M162.48 207.43H108.747C107.768 207.412 106.836 207.007 106.156 206.302C105.477 205.598 105.105 204.652 105.122 203.673V154.86C105.105 153.881 105.477 152.936 106.157 152.232C106.837 151.527 107.768 151.122 108.747 151.104H162.48C163.459 151.122 164.39 151.528 165.07 152.232C165.749 152.936 166.122 153.881 166.105 154.86V203.673C166.122 204.652 165.749 205.597 165.07 206.301C164.39 207.005 163.459 207.412 162.48 207.43Z" fill="#EEEEEE"/>
<path d="M165.638 210.215H105.589C105.1 210.215 104.615 210.119 104.163 209.931C103.711 209.744 103.301 209.469 102.955 209.123C102.609 208.777 102.335 208.367 102.148 207.915C101.961 207.463 101.865 206.978 101.865 206.489V157.613C101.865 156.625 102.257 155.678 102.956 154.98C103.654 154.281 104.601 153.889 105.589 153.889H165.638C166.127 153.889 166.612 153.985 167.064 154.172C167.516 154.359 167.927 154.633 168.273 154.979C168.619 155.324 168.894 155.735 169.081 156.187C169.269 156.639 169.365 157.124 169.365 157.613V206.489C169.365 207.477 168.973 208.424 168.274 209.122C167.576 209.821 166.629 210.213 165.641 210.213" fill="white"/>
<path d="M114.707 173.82C113.225 173.82 111.777 173.381 110.545 172.558C109.313 171.735 108.353 170.565 107.786 169.197C107.219 167.828 107.071 166.322 107.36 164.869C107.649 163.416 108.362 162.081 109.41 161.034C110.457 159.986 111.792 159.273 113.245 158.984C114.698 158.695 116.204 158.843 117.573 159.41C118.941 159.977 120.111 160.937 120.934 162.169C121.757 163.401 122.196 164.849 122.196 166.331C122.196 168.317 121.407 170.222 120.002 171.626C118.598 173.031 116.693 173.82 114.707 173.82Z" fill="#EFEFEF"/>
<path d="M156.579 164.567H127.798C127.632 164.572 127.468 164.543 127.314 164.483C127.159 164.423 127.019 164.332 126.9 164.217C126.781 164.102 126.687 163.964 126.622 163.811C126.558 163.659 126.525 163.495 126.525 163.329C126.525 163.164 126.558 163 126.622 162.847C126.687 162.695 126.781 162.557 126.9 162.442C127.019 162.326 127.159 162.236 127.314 162.176C127.468 162.116 127.632 162.087 127.798 162.092H156.579C156.901 162.101 157.207 162.235 157.432 162.466C157.656 162.698 157.782 163.007 157.782 163.329C157.782 163.652 157.656 163.961 157.432 164.192C157.207 164.423 156.901 164.558 156.579 164.567Z" fill="#EFEFEF"/>
<path d="M101.865 179.107H169.365V178.925H101.865V179.107Z" fill="#E2E2E2"/>
<path d="M161.715 203.484H110.724C110.395 203.484 110.07 203.419 109.767 203.293C109.463 203.168 109.187 202.983 108.955 202.751C108.723 202.518 108.539 202.242 108.413 201.939C108.288 201.635 108.224 201.31 108.224 200.981V195.272C108.224 194.609 108.487 193.973 108.956 193.504C109.425 193.035 110.061 192.772 110.724 192.772H161.715C162.378 192.772 163.014 193.035 163.483 193.504C163.952 193.973 164.215 194.609 164.215 195.272V200.981C164.215 201.644 163.952 202.28 163.483 202.749C163.014 203.218 162.378 203.481 161.715 203.481" fill="#4CE5B1"/>
<path d="M130.834 195.728H130.209C130.172 195.548 130.107 195.39 130.014 195.254C129.924 195.117 129.812 195.003 129.681 194.91C129.552 194.816 129.408 194.746 129.25 194.698C129.092 194.651 128.927 194.628 128.755 194.628C128.442 194.628 128.159 194.707 127.905 194.865C127.652 195.023 127.451 195.256 127.302 195.564C127.154 195.872 127.08 196.25 127.08 196.697C127.08 197.144 127.154 197.522 127.302 197.83C127.451 198.138 127.652 198.371 127.905 198.529C128.159 198.687 128.442 198.766 128.755 198.766C128.927 198.766 129.092 198.743 129.25 198.696C129.408 198.648 129.552 198.579 129.681 198.486C129.812 198.392 129.924 198.277 130.014 198.14C130.107 198.002 130.172 197.844 130.209 197.666H130.834C130.787 197.93 130.702 198.166 130.577 198.375C130.453 198.584 130.298 198.761 130.113 198.908C129.928 199.052 129.72 199.162 129.489 199.238C129.261 199.314 129.016 199.352 128.755 199.352C128.314 199.352 127.922 199.244 127.579 199.029C127.236 198.813 126.966 198.507 126.769 198.11C126.572 197.713 126.474 197.242 126.474 196.697C126.474 196.152 126.572 195.681 126.769 195.284C126.966 194.887 127.236 194.581 127.579 194.365C127.922 194.15 128.314 194.042 128.755 194.042C129.016 194.042 129.261 194.08 129.489 194.156C129.72 194.232 129.928 194.343 130.113 194.489C130.298 194.634 130.453 194.81 130.577 195.019C130.702 195.226 130.787 195.462 130.834 195.728ZM133.34 199.362C132.99 199.362 132.683 199.278 132.419 199.112C132.156 198.945 131.951 198.712 131.803 198.413C131.656 198.113 131.583 197.764 131.583 197.363C131.583 196.959 131.656 196.607 131.803 196.306C131.951 196.005 132.156 195.771 132.419 195.604C132.683 195.438 132.99 195.355 133.34 195.355C133.69 195.355 133.996 195.438 134.258 195.604C134.522 195.771 134.728 196.005 134.874 196.306C135.022 196.607 135.096 196.959 135.096 197.363C135.096 197.764 135.022 198.113 134.874 198.413C134.728 198.712 134.522 198.945 134.258 199.112C133.996 199.278 133.69 199.362 133.34 199.362ZM133.34 198.827C133.605 198.827 133.824 198.759 133.996 198.622C134.167 198.486 134.294 198.307 134.377 198.085C134.459 197.863 134.5 197.622 134.5 197.363C134.5 197.104 134.459 196.863 134.377 196.639C134.294 196.415 134.167 196.234 133.996 196.096C133.824 195.958 133.605 195.89 133.34 195.89C133.074 195.89 132.855 195.958 132.684 196.096C132.512 196.234 132.385 196.415 132.302 196.639C132.22 196.863 132.179 197.104 132.179 197.363C132.179 197.622 132.22 197.863 132.302 198.085C132.385 198.307 132.512 198.486 132.684 198.622C132.855 198.759 133.074 198.827 133.34 198.827ZM136.601 196.949V199.281H136.005V195.405H136.58V196.011H136.631C136.722 195.814 136.86 195.656 137.045 195.536C137.23 195.415 137.469 195.355 137.761 195.355C138.024 195.355 138.253 195.408 138.45 195.516C138.647 195.622 138.8 195.784 138.909 196.001C139.019 196.216 139.074 196.488 139.074 196.818V199.281H138.478V196.859C138.478 196.554 138.399 196.317 138.241 196.147C138.083 195.975 137.866 195.89 137.59 195.89C137.4 195.89 137.23 195.931 137.08 196.013C136.932 196.096 136.815 196.216 136.729 196.374C136.643 196.532 136.601 196.724 136.601 196.949ZM141.888 195.405V195.91H139.798V195.405H141.888ZM140.424 199.281V194.87C140.424 194.648 140.476 194.463 140.581 194.315C140.685 194.167 140.82 194.056 140.987 193.982C141.153 193.908 141.329 193.871 141.514 193.871C141.661 193.871 141.78 193.883 141.873 193.906C141.965 193.93 142.034 193.952 142.08 193.972L141.908 194.486C141.878 194.476 141.836 194.464 141.782 194.449C141.73 194.433 141.661 194.426 141.575 194.426C141.378 194.426 141.236 194.476 141.148 194.575C141.063 194.674 141.02 194.82 141.02 195.011V199.281H140.424ZM142.722 199.281V195.405H143.318V199.281H142.722ZM143.025 194.759C142.909 194.759 142.809 194.719 142.725 194.64C142.642 194.561 142.601 194.466 142.601 194.355C142.601 194.244 142.642 194.149 142.725 194.07C142.809 193.991 142.909 193.952 143.025 193.952C143.141 193.952 143.241 193.991 143.323 194.07C143.407 194.149 143.449 194.244 143.449 194.355C143.449 194.466 143.407 194.561 143.323 194.64C143.241 194.719 143.141 194.759 143.025 194.759Z" fill="white"/>
<path d="M126.595 208.281V204.405H127.17V204.99H127.211C127.281 204.799 127.409 204.643 127.594 204.524C127.779 204.404 127.988 204.344 128.22 204.344C128.264 204.344 128.319 204.345 128.384 204.347C128.45 204.349 128.499 204.351 128.533 204.355V204.96C128.513 204.955 128.467 204.948 128.394 204.937C128.324 204.926 128.249 204.92 128.17 204.92C127.981 204.92 127.813 204.959 127.665 205.038C127.519 205.116 127.403 205.223 127.317 205.361C127.233 205.498 127.191 205.653 127.191 205.828V208.281H126.595ZM129.239 208.281V204.405H129.814V205.011H129.865C129.946 204.804 130.076 204.643 130.256 204.529C130.436 204.413 130.652 204.355 130.905 204.355C131.16 204.355 131.373 204.413 131.543 204.529C131.715 204.643 131.848 204.804 131.944 205.011H131.985C132.084 204.81 132.233 204.651 132.431 204.534C132.63 204.414 132.868 204.355 133.145 204.355C133.492 204.355 133.775 204.463 133.996 204.68C134.216 204.895 134.326 205.231 134.326 205.687V208.281H133.731V205.687C133.731 205.401 133.653 205.197 133.496 205.074C133.34 204.951 133.155 204.89 132.943 204.89C132.671 204.89 132.46 204.972 132.31 205.137C132.16 205.3 132.085 205.507 132.085 205.758V208.281H131.48V205.626C131.48 205.406 131.408 205.228 131.265 205.094C131.122 204.958 130.938 204.89 130.713 204.89C130.558 204.89 130.413 204.931 130.279 205.013C130.146 205.096 130.038 205.21 129.956 205.356C129.875 205.501 129.835 205.668 129.835 205.859V208.281H129.239Z" fill="white"/>
<path d="M130.272 169.386C130.31 169.347 130.337 169.299 130.349 169.246C130.362 169.193 130.36 169.138 130.344 169.086C130.329 169.035 130.299 168.989 130.259 168.953C130.218 168.918 130.169 168.895 130.116 168.886L129.176 168.743C129.167 168.742 129.158 168.738 129.15 168.733C129.143 168.727 129.137 168.72 129.133 168.711L128.714 167.82C128.692 167.771 128.656 167.729 128.611 167.7C128.566 167.671 128.514 167.655 128.46 167.655C128.406 167.655 128.353 167.671 128.308 167.7C128.263 167.729 128.228 167.771 128.206 167.82L127.785 168.708C127.781 168.717 127.775 168.724 127.768 168.73C127.761 168.735 127.752 168.739 127.743 168.74L126.803 168.883C126.75 168.891 126.7 168.915 126.66 168.95C126.619 168.985 126.589 169.032 126.574 169.083C126.558 169.135 126.556 169.19 126.568 169.243C126.581 169.296 126.608 169.344 126.646 169.383L127.327 170.075C127.333 170.082 127.338 170.09 127.341 170.099C127.344 170.108 127.345 170.118 127.344 170.127L127.183 171.104C127.174 171.158 127.179 171.213 127.199 171.264C127.219 171.314 127.252 171.359 127.295 171.392C127.337 171.425 127.388 171.445 127.442 171.448C127.495 171.452 127.548 171.44 127.595 171.414L128.436 170.954C128.444 170.949 128.453 170.947 128.462 170.947C128.471 170.947 128.48 170.949 128.488 170.954L129.328 171.414C129.375 171.44 129.428 171.452 129.481 171.448C129.534 171.444 129.585 171.425 129.628 171.392C129.671 171.359 129.704 171.314 129.724 171.264C129.744 171.213 129.75 171.158 129.741 171.104L129.58 170.127C129.578 170.118 129.579 170.108 129.582 170.099C129.585 170.09 129.589 170.081 129.596 170.074L130.272 169.386Z" fill="#FFD400"/>
<path d="M134.775 169.386C134.813 169.347 134.84 169.299 134.852 169.246C134.865 169.193 134.863 169.138 134.847 169.086C134.832 169.035 134.802 168.989 134.762 168.953C134.721 168.918 134.672 168.895 134.619 168.886L133.679 168.743C133.67 168.742 133.661 168.738 133.653 168.733C133.646 168.727 133.64 168.72 133.636 168.711L133.217 167.82C133.195 167.771 133.159 167.729 133.114 167.7C133.069 167.671 133.017 167.655 132.963 167.655C132.909 167.655 132.857 167.671 132.811 167.7C132.766 167.729 132.731 167.771 132.709 167.82L132.288 168.708C132.284 168.716 132.278 168.724 132.271 168.729C132.264 168.735 132.255 168.739 132.246 168.74L131.306 168.883C131.253 168.891 131.203 168.915 131.163 168.95C131.122 168.985 131.092 169.032 131.077 169.083C131.061 169.135 131.059 169.19 131.071 169.243C131.084 169.296 131.111 169.344 131.149 169.383L131.83 170.075C131.837 170.082 131.842 170.09 131.844 170.099C131.847 170.108 131.848 170.118 131.847 170.127L131.686 171.104C131.677 171.158 131.682 171.213 131.702 171.264C131.722 171.314 131.755 171.359 131.798 171.392C131.84 171.425 131.891 171.445 131.945 171.448C131.998 171.452 132.051 171.44 132.098 171.414L132.939 170.954C132.947 170.949 132.956 170.947 132.965 170.947C132.974 170.947 132.983 170.949 132.991 170.954L133.831 171.414C133.878 171.44 133.931 171.452 133.984 171.448C134.038 171.444 134.089 171.425 134.131 171.392C134.174 171.359 134.207 171.314 134.227 171.264C134.247 171.213 134.253 171.158 134.244 171.104L134.083 170.127C134.081 170.118 134.082 170.108 134.085 170.099C134.088 170.09 134.092 170.081 134.099 170.074L134.775 169.386Z" fill="#FFD400"/>
<path d="M139.615 169.386C139.653 169.347 139.68 169.299 139.692 169.246C139.705 169.193 139.703 169.138 139.687 169.086C139.672 169.035 139.642 168.989 139.602 168.953C139.561 168.918 139.512 168.895 139.459 168.886L138.519 168.743C138.51 168.742 138.501 168.738 138.493 168.733C138.486 168.727 138.48 168.72 138.476 168.711L138.057 167.82C138.035 167.771 137.999 167.729 137.954 167.7C137.909 167.671 137.857 167.655 137.803 167.655C137.749 167.655 137.697 167.671 137.651 167.7C137.606 167.729 137.571 167.771 137.549 167.82L137.128 168.708C137.124 168.717 137.118 168.724 137.111 168.73C137.104 168.735 137.095 168.739 137.086 168.74L136.146 168.883C136.093 168.891 136.043 168.915 136.003 168.95C135.962 168.985 135.932 169.032 135.917 169.083C135.901 169.135 135.899 169.19 135.911 169.243C135.924 169.296 135.951 169.344 135.989 169.383L136.67 170.075C136.677 170.082 136.681 170.09 136.684 170.099C136.687 170.108 136.688 170.118 136.687 170.127L136.526 171.104C136.517 171.158 136.522 171.213 136.542 171.264C136.562 171.314 136.595 171.359 136.638 171.392C136.68 171.425 136.731 171.445 136.785 171.448C136.838 171.452 136.891 171.44 136.938 171.414L137.779 170.954C137.787 170.949 137.796 170.947 137.805 170.947C137.814 170.947 137.823 170.949 137.831 170.954L138.671 171.414C138.718 171.44 138.771 171.452 138.824 171.448C138.877 171.444 138.928 171.425 138.971 171.392C139.014 171.359 139.047 171.314 139.067 171.264C139.087 171.213 139.093 171.158 139.084 171.104L138.923 170.127C138.921 170.118 138.922 170.108 138.925 170.099C138.928 170.09 138.932 170.081 138.939 170.074L139.615 169.386Z" fill="#FFD400"/>
<path d="M144.119 169.386C144.157 169.347 144.184 169.299 144.197 169.246C144.209 169.193 144.207 169.138 144.191 169.086C144.176 169.034 144.146 168.988 144.106 168.953C144.066 168.917 144.016 168.894 143.963 168.886L143.024 168.743C143.015 168.742 143.006 168.738 142.998 168.733C142.991 168.727 142.985 168.72 142.981 168.711L142.56 167.82C142.538 167.771 142.502 167.73 142.457 167.701C142.412 167.671 142.36 167.656 142.306 167.655C142.252 167.655 142.2 167.671 142.155 167.7C142.109 167.729 142.074 167.771 142.052 167.82L141.632 168.708C141.628 168.717 141.622 168.724 141.615 168.73C141.607 168.735 141.598 168.739 141.589 168.74L140.65 168.883C140.597 168.891 140.547 168.915 140.506 168.95C140.466 168.985 140.436 169.031 140.42 169.083C140.404 169.135 140.403 169.19 140.415 169.243C140.428 169.296 140.454 169.344 140.492 169.383L141.172 170.075C141.179 170.082 141.184 170.09 141.187 170.099C141.19 170.108 141.19 170.118 141.189 170.127L141.028 171.104C141.019 171.158 141.025 171.213 141.045 171.264C141.064 171.314 141.098 171.359 141.141 171.392C141.183 171.425 141.234 171.445 141.288 171.448C141.341 171.452 141.394 171.44 141.441 171.414L142.281 170.954C142.289 170.949 142.298 170.947 142.307 170.947C142.316 170.947 142.325 170.949 142.333 170.954L143.173 171.414C143.22 171.44 143.273 171.452 143.326 171.448C143.38 171.444 143.431 171.424 143.473 171.392C143.516 171.359 143.549 171.314 143.569 171.264C143.589 171.213 143.594 171.158 143.585 171.104L143.425 170.127C143.423 170.118 143.424 170.108 143.427 170.099C143.429 170.09 143.434 170.081 143.44 170.074L144.119 169.386Z" fill="#FFD400"/>
<path d="M148.757 169.386C148.795 169.347 148.822 169.299 148.834 169.246C148.847 169.193 148.845 169.138 148.829 169.086C148.814 169.035 148.784 168.988 148.744 168.953C148.703 168.918 148.654 168.894 148.601 168.886L147.661 168.743C147.652 168.742 147.643 168.738 147.635 168.733C147.628 168.727 147.622 168.72 147.618 168.711L147.198 167.82C147.176 167.771 147.14 167.73 147.095 167.701C147.05 167.671 146.998 167.656 146.944 167.655C146.89 167.655 146.838 167.671 146.792 167.7C146.747 167.729 146.712 167.771 146.69 167.82L146.269 168.708C146.265 168.717 146.259 168.724 146.252 168.73C146.245 168.735 146.236 168.739 146.227 168.74L145.288 168.883C145.235 168.891 145.185 168.915 145.144 168.95C145.103 168.985 145.074 169.031 145.058 169.083C145.042 169.135 145.04 169.19 145.052 169.243C145.065 169.296 145.092 169.344 145.13 169.383L145.81 170.075C145.816 170.082 145.821 170.09 145.824 170.099C145.827 170.108 145.828 170.118 145.827 170.127L145.666 171.104C145.657 171.158 145.662 171.213 145.682 171.264C145.702 171.314 145.736 171.359 145.779 171.392C145.821 171.425 145.872 171.445 145.926 171.448C145.979 171.452 146.032 171.44 146.079 171.414L146.919 170.954C146.927 170.949 146.936 170.947 146.945 170.947C146.954 170.947 146.963 170.949 146.971 170.954L147.811 171.414C147.858 171.44 147.911 171.452 147.964 171.448C148.017 171.444 148.068 171.424 148.111 171.392C148.154 171.359 148.187 171.314 148.207 171.264C148.227 171.213 148.232 171.158 148.223 171.104L148.063 170.127C148.061 170.118 148.062 170.108 148.064 170.099C148.067 170.09 148.072 170.081 148.078 170.074L148.757 169.386Z" fill="#FFD400"/>
</svg>
