<svg width="21" height="74" viewBox="0 0 21 74" fill="none" xmlns="http://www.w3.org/2000/svg">
<path d="M10.5 18.417V49.004" stroke="#C8C7CC" stroke-width="2" stroke-miterlimit="10" stroke-linecap="round" stroke-linejoin="round" stroke-dasharray="4 4"/>
<path d="M10.5 21.917C16.299 21.917 21 17.216 21 11.417C21 5.618 16.299 0.916992 10.5 0.916992C4.70101 0.916992 0 5.618 0 11.417C0 17.216 4.70101 21.917 10.5 21.917Z" fill="white"/>
<path d="M10.5 20.917C15.7467 20.917 20 16.6637 20 11.417C20 6.17029 15.7467 1.91699 10.5 1.91699C5.25329 1.91699 1 6.17029 1 11.417C1 16.6637 5.25329 20.917 10.5 20.917Z" stroke="#4CE5B1" stroke-width="2" stroke-miterlimit="10"/>
<path d="M10.25 16.417C13.1495 16.417 15.5 14.0665 15.5 11.167C15.5 8.2675 13.1495 5.91699 10.25 5.91699C7.35051 5.91699 5 8.2675 5 11.167C5 14.0665 7.35051 16.417 10.25 16.417Z" fill="#4CE5B1"/>
<path d="M10.259 73.083C9.304 73.083 4.771 67.483 3.659 65.675C2 62.98 1 61.353 1 58.259C1 55.8034 1.9755 53.4483 3.7119 51.7119C5.4483 49.9755 7.80336 49 10.259 49C12.7146 49 15.0697 49.9755 16.8061 51.7119C18.5425 53.4483 19.518 55.8034 19.518 58.259C19.518 61.228 18.529 62.832 16.89 65.49L16.776 65.675C15.633 67.529 11.195 73.083 10.259 73.083ZM10.259 53.629C9.34327 53.629 8.44811 53.9005 7.68671 54.4093C6.92531 54.918 6.33187 55.6412 5.98144 56.4872C5.631 57.3332 5.53931 58.2641 5.71796 59.1623C5.89661 60.0604 6.33758 60.8854 6.9851 61.5329C7.63261 62.1804 8.4576 62.6214 9.35573 62.8C10.2539 62.9787 11.1848 62.887 12.0308 62.5366C12.8768 62.1861 13.6 61.5927 14.1087 60.8313C14.6175 60.0699 14.889 59.1747 14.889 58.259C14.8874 57.0316 14.3991 55.855 13.5311 54.9872C12.6631 54.1194 11.4864 53.6303 10.259 53.629Z" fill="#F52D56"/>
</svg>
